<svg width="32" height="32" viewBox="0 0 32 32" fill="none" xmlns="http://www.w3.org/2000/svg">
<path d="M16 32C24.8667 32 32 24.8667 32 16C32 7.13328 24.8667 0 16 0C7.13328 0 0 7.13328 0 16C0 24.8667 7.13328 32 16 32Z" fill="#2775CA"/>
<path d="M20.4001 18.5333C20.4001 16.2 19.0001 15.4 16.2001 15.0667C14.2001 14.8 13.8001 14.2667 13.8001 13.3333C13.8001 12.3998 14.4668 11.8 15.8001 11.8C17.0001 11.8 17.6668 12.2 18.0001 13.2C18.0668 13.4 18.2668 13.5333 18.4668 13.5333H19.5334C19.8001 13.5333 20.0001 13.3333 20.0001 13.0667V13C19.7334 11.5333 18.5334 10.4 17.0001 10.2667V8.66671C17.0001 8.39999 16.8001 8.19999 16.4668 8.13327H15.4668C15.2001 8.13327 15.0001 8.33327 14.9334 8.66671V10.2C12.9334 10.4667 11.6668 11.8 11.6668 13.4667C11.6668 15.6667 13.0001 16.5333 15.8001 16.8667C17.6668 17.2 18.2668 17.6 18.2668 18.6667C18.2668 19.7334 17.3334 20.4667 16.0668 20.4667C14.3334 20.4667 13.7334 19.7333 13.5334 18.7333C13.4668 18.4667 13.2668 18.3333 13.0668 18.3333H11.9334C11.6668 18.3333 11.4668 18.5333 11.4668 18.8V18.8667C11.7334 20.5333 12.8001 21.7333 15.0001 22.0667V23.6667C15.0001 23.9333 15.2001 24.1333 15.5334 24.2H16.5334C16.8001 24.2 17.0001 24 17.0668 23.6667V22.0667C19.0668 21.7333 20.4001 20.3333 20.4001 18.5333Z" fill="white"/>
<path fill-rule="evenodd" clip-rule="evenodd" d="M6.66655 12.7333C4.73311 17.8667 7.39984 23.6667 12.5998 25.5333C12.7998 25.6667 12.9998 25.9333 12.9998 26.1333V27.0667C12.9998 27.2 12.9998 27.2668 12.9331 27.3333C12.8666 27.6 12.5998 27.7333 12.3331 27.6C8.59983 26.4 5.73311 23.5333 4.53311 19.8C2.53312 13.4667 5.99984 6.73331 12.3331 4.73331C12.3998 4.66675 12.5331 4.66675 12.5998 4.66675C12.8666 4.73331 12.9998 4.93331 12.9998 5.20003V6.13331C12.9998 6.46675 12.8666 6.66675 12.5998 6.80003C9.86655 7.80003 7.66655 9.93331 6.66655 12.7333ZM19.0667 5.00003C19.1333 4.73331 19.4 4.60003 19.6667 4.73331C23.3333 5.93331 26.2667 8.80003 27.4667 12.6C29.4667 18.9333 26 25.6668 19.6667 27.6668C19.6 27.7333 19.4667 27.7333 19.4 27.7333C19.1333 27.6668 19 27.4668 19 27.2V26.2668C19 25.9333 19.1333 25.7333 19.4 25.6C22.1333 24.6 24.3333 22.4668 25.3333 19.6668C27.2667 14.5333 24.6 8.73331 19.4 6.86675C19.2 6.73331 19 6.46675 19 6.20003V5.26675C19 5.13331 19 5.06675 19.0667 5.00003Z" fill="white"/>
</svg>
