<svg width="44" height="52" viewBox="0 0 44 52" fill="none" xmlns="http://www.w3.org/2000/svg">
<path d="M22.2239 51.7648C21.9034 51.7648 21.5829 51.6912 21.2937 51.5415L11.9732 46.7167C9.32842 45.3462 7.25951 43.8082 5.64399 42.0164C2.10809 38.0977 0.140805 33.0674 0.109537 27.8492L9.85855e-05 10.6746C-0.0129298 8.69241 1.26646 6.91327 3.17902 6.24323L20.2931 0.276393C21.3093 -0.0865407 22.4428 -0.0916167 23.4772 0.258627L40.6565 6.02243C42.5795 6.66454 43.8797 8.43099 43.8901 10.4106L43.9996 27.598C44.0334 32.8085 42.1339 37.8591 38.6527 41.8209C37.0554 43.6381 35.0048 45.199 32.3861 46.5949L23.1489 51.5288C22.8623 51.6836 22.5444 51.7623 22.2239 51.7648" fill="#16837C"/>
<path d="M20.2378 31.889C19.7375 31.8915 19.2372 31.7113 18.8516 31.3408L13.8904 26.5693C13.1243 25.8282 13.1165 24.6252 13.8748 23.879C14.633 23.1303 15.8707 23.1227 16.6394 23.8613L20.2092 27.2926L28.9251 18.699C29.686 17.9503 30.9237 17.9426 31.6898 18.6812C32.4584 19.4223 32.4663 20.6279 31.708 21.3715L21.6162 31.323C21.2358 31.6986 20.7381 31.8864 20.2378 31.889" fill="#11ECC7"/>
</svg>
