<svg width="26" height="26" viewBox="0 0 26 26" fill="none" xmlns="http://www.w3.org/2000/svg">
<path fill-rule="evenodd" clip-rule="evenodd" d="M4.12444 11.5H7.04294C7.17675 9.18041 7.61842 7.04361 8.29966 5.32342C6.12627 6.65702 4.5627 8.88772 4.12444 11.5ZM13 1C6.37258 1 1 6.37258 1 13C1 19.6274 6.37258 25 13 25C19.6274 25 25 19.6274 25 13C25 6.37258 19.6274 1 13 1ZM13 4C12.8859 4 12.6518 4.04759 12.302 4.39276C11.9459 4.7443 11.5563 5.32736 11.1967 6.16626C10.6137 7.52666 10.1874 9.37838 10.0486 11.5H15.9514C15.8126 9.37838 15.3863 7.52666 14.8033 6.16626C14.4437 5.32736 14.0541 4.7443 13.6979 4.39276C13.3482 4.04759 13.1141 4 13 4ZM18.9571 11.5C18.8232 9.18041 18.3816 7.04361 17.7003 5.32342C19.8737 6.65702 21.4373 8.88772 21.8756 11.5H18.9571ZM15.9514 14.5H10.0486C10.1874 16.6216 10.6137 18.4733 11.1967 19.8337C11.5563 20.6726 11.9459 21.2557 12.302 21.6072C12.6518 21.9524 12.8859 22 13 22C13.1141 22 13.3482 21.9524 13.6979 21.6072C14.0541 21.2557 14.4437 20.6726 14.8033 19.8337C15.3863 18.4733 15.8126 16.6216 15.9514 14.5ZM17.7003 20.6766C18.3816 18.9564 18.8232 16.8196 18.9571 14.5H21.8756C21.4373 17.1123 19.8737 19.343 17.7003 20.6766ZM8.29966 20.6766C7.61842 18.9564 7.17675 16.8196 7.04294 14.5H4.12444C4.5627 17.1123 6.12628 19.343 8.29966 20.6766Z" fill="white" stroke="#272C35" stroke-width="1.2"/>
</svg>
