<svg width="44" height="52" viewBox="0 0 44 52" fill="none" xmlns="http://www.w3.org/2000/svg">
<path fill-rule="evenodd" clip-rule="evenodd" d="M11.0487 17.3762H32.9513C39.053 17.3762 44 22.2142 44 28.1812V40.9589C44 46.926 39.053 51.7639 32.9513 51.7639H11.0487C4.94704 51.7639 0 46.926 0 40.9589V28.1812C0 22.2142 4.94704 17.3762 11.0487 17.3762ZM21.9869 39.6755C23.2756 39.6755 24.3013 38.6724 24.3013 37.4121V31.7022C24.3013 30.4677 23.2756 29.4646 21.9869 29.4646C20.7245 29.4646 19.6988 30.4677 19.6988 31.7022V37.4121C19.6988 38.6724 20.7245 39.6755 21.9869 39.6755Z" fill="#16837C"/>
<path d="M36.2945 13.966V17.7726C35.374 17.5154 34.4009 17.3868 33.4015 17.3868H31.692V13.966C31.692 8.74482 27.3524 4.50101 22.0135 4.50101C16.6746 4.50101 12.3351 8.7191 12.3088 13.9146V17.3868H10.6256C9.5999 17.3868 8.6268 17.5154 7.7063 17.7983V13.966C7.7326 6.24997 14.1235 0 21.9609 0C29.9035 0 36.2945 6.24997 36.2945 13.966" fill="#11ECC7"/>
</svg>
