<svg width="32" height="38" viewBox="0 0 32 38" fill="none" xmlns="http://www.w3.org/2000/svg">
<rect width="32" height="38" fill="#F5F5F5"/>
<g id="tokens" clip-path="url(#clip0_845_16248)">
<rect width="1440" height="1794" transform="translate(-1074 -998)" fill="#000504"/>
<rect id="Rectangle 22808" x="-24" y="-24" width="350" height="301" rx="16" fill="#161D26"/>
<g id="Shield Done">
<path id="Fill 1" d="M16.1628 37.6471C15.9298 37.6471 15.6967 37.5936 15.4863 37.4847L8.70777 33.9758C6.78431 32.9791 5.27965 31.8605 4.10472 30.5574C1.53316 27.7074 0.102404 24.049 0.0796633 20.254L7.16985e-05 7.76333C-0.00940349 6.32175 0.92106 5.02783 2.31202 4.54053L14.7586 0.201013C15.4977 -0.0629387 16.322 -0.0666303 17.0744 0.188093L29.5683 4.37995C30.9669 4.84694 31.9125 6.13163 31.9201 7.57137L31.9997 20.0713C32.0243 23.8607 30.6428 27.5339 28.1111 30.4152C26.9494 31.7368 25.458 32.872 23.5535 33.8872L16.8356 37.4755C16.6271 37.5881 16.3959 37.6453 16.1628 37.6471" fill="#16837C"/>
<path id="Fill 4" d="M14.7184 23.1918C14.3546 23.1937 13.9907 23.0626 13.7102 22.7931L10.1021 19.323C9.54496 18.784 9.53927 17.9091 10.0907 17.3664C10.6422 16.8219 11.5423 16.8164 12.1014 17.3535L14.6976 19.8491L21.0365 13.5991C21.5898 13.0546 22.49 13.0491 23.0471 13.5862C23.6061 14.1252 23.6118 15.0019 23.0604 15.5428L15.7209 22.7802C15.4442 23.0534 15.0823 23.19 14.7184 23.1918" fill="#11ECC7"/>
</g>
</g>
<defs>
<clipPath id="clip0_845_16248">
<rect width="1440" height="1794" fill="white" transform="translate(-1074 -998)"/>
</clipPath>
</defs>
</svg>
