<svg xmlns="http://www.w3.org/2000/svg" width="741.048" height="741.048" viewBox="0 0 741.048 741.048">
  <g id="Grupo_1" data-name="Grupo 1" transform="translate(-1333.476 -88.476)">
    <path id="Caminho_2" data-name="Caminho 2" d="M333.524,704.048c-201.481,0-364.158-157.724-370.35-359.074.054-.086,73.793-.039,73.82,0,6.649,159.367,136.414,285.074,296.53,285.074,79.774,0,154.517-31.123,210.462-87.636l52.59,52.061C526.626,665.133,433.206,704.048,333.524,704.048Z" transform="translate(2037.524 125.476) rotate(90)" fill="#11ecca"/>
    <path id="Caminho_1" data-name="Caminho 1" d="M333.524,704.048A369.365,369.365,0,0,1,81.756,605.373l50.292-54.284a295.58,295.58,0,0,0,201.476,78.959c163.5,0,296.524-133.02,296.524-296.524S497.028,37,333.524,37V-37c204.308,0,370.524,166.216,370.524,370.524S537.832,704.048,333.524,704.048Z" transform="translate(1370.476 125.476)" fill="#f9b431"/>
  </g>
</svg>
