<svg width="162" height="26" viewBox="0 0 162 26" fill="none" xmlns="http://www.w3.org/2000/svg">
<g clip-path="url(#clip0_152_16501)">
<path d="M13.8825 4.70068L0.335759 4.70068C0.248147 4.70068 0.164124 4.66509 0.102173 4.60174C0.0402212 4.53839 0.00541782 4.45247 0.00541782 4.36288V0.337831C0.00541782 0.24824 0.0402212 0.162317 0.102173 0.0989666C0.164124 0.0356159 0.248147 2.6226e-05 0.335759 2.6226e-05L10.3589 2.6226e-05C11.381 2.6226e-05 12.3613 0.415243 13.0841 1.15433C13.8068 1.89342 14.2129 2.89584 14.2129 3.94107V4.36288C14.2129 4.45247 14.1781 4.53839 14.1161 4.60174C14.0542 4.66509 13.9702 4.70068 13.8825 4.70068Z" fill="#11ECC7"/>
<path d="M15.2553 17.4047C14.2056 17.4046 13.199 16.9781 12.4568 16.2191C11.7146 15.46 11.2977 14.4306 11.2977 13.3572C11.2977 13.2891 11.3107 13.2216 11.3362 13.1586C11.3617 13.0957 11.3991 13.0385 11.4463 12.9904C11.3737 13.0292 11.293 13.0495 11.2112 13.0494H0.508066C0.441368 13.0494 0.375307 13.0361 0.313662 13.01C0.252018 12.984 0.195999 12.9458 0.14881 12.8976C0.101622 12.8494 0.0641897 12.7921 0.0386553 12.7291C0.0131209 12.6661 -1.4519e-05 12.5986 1.20429e-08 12.5304V9.0019C1.20429e-08 8.86429 0.0534586 8.73231 0.148616 8.635C0.243773 8.5377 0.372834 8.48303 0.507406 8.48303H7.76007C8.80979 8.48303 9.81652 8.90944 10.5588 9.66847C11.3011 10.4275 11.7181 11.4569 11.7181 12.5304C11.7181 12.5985 11.705 12.6659 11.6795 12.7288C11.6541 12.7917 11.6167 12.8489 11.5696 12.897C11.6421 12.8581 11.7229 12.8379 11.8048 12.838H22.1775C22.2442 12.838 22.3102 12.8514 22.3717 12.8775C22.4333 12.9036 22.4892 12.9418 22.5364 12.99C22.5835 13.0382 22.6209 13.0954 22.6463 13.1584C22.6718 13.2214 22.685 13.2888 22.6849 13.357V16.8858C22.6849 17.0234 22.6315 17.1554 22.5363 17.2527C22.4412 17.35 22.3121 17.4047 22.1775 17.4047H15.2553Z" fill="#11ECC7"/>
<path d="M14.7203 4.3772H22.1772C22.3118 4.3772 22.4409 4.43186 22.536 4.52917C22.6312 4.62648 22.6846 4.75845 22.6846 4.89606V8.42465C22.6846 8.56227 22.6312 8.69424 22.536 8.79155C22.4409 8.88886 22.3118 8.94352 22.1772 8.94352H18.1709C17.1212 8.94352 16.1145 8.51709 15.3722 7.75805C14.6299 6.999 14.2129 5.96952 14.2129 4.89606C14.2129 4.75845 14.2663 4.62648 14.3615 4.52917C14.4567 4.43186 14.5857 4.3772 14.7203 4.3772Z" fill="#F9A912"/>
<path d="M8.86062 21.2992H22.4074C22.495 21.2992 22.579 21.3348 22.641 21.3981C22.7029 21.4615 22.7377 21.5474 22.7377 21.637V25.662C22.7377 25.7516 22.7029 25.8376 22.641 25.9009C22.579 25.9643 22.495 25.9999 22.4074 25.9999H12.3843C11.3621 25.9999 10.3818 25.5846 9.65908 24.8455C8.93632 24.1065 8.53027 23.104 8.53027 22.0588V21.637C8.53027 21.5474 8.56508 21.4615 8.62703 21.3981C8.68898 21.3348 8.773 21.2992 8.86062 21.2992Z" fill="#11ECC7"/>
<path d="M8.29435 21.5103H0.512808C0.378236 21.5103 0.249175 21.4556 0.154017 21.3583C0.0588608 21.261 0.00540161 21.129 0.00540161 20.9914V17.4628C0.00540161 17.3252 0.0588608 17.1932 0.154017 17.0959C0.249175 16.9986 0.378236 16.9439 0.512808 16.9439H4.84371C5.89345 16.9439 6.90019 17.3704 7.64247 18.1294C8.38475 18.8884 8.80176 19.9179 8.80176 20.9914C8.80176 21.129 8.7483 21.261 8.65314 21.3583C8.55799 21.4556 8.42892 21.5103 8.29435 21.5103Z" fill="#11ECC7"/>
<path d="M88.8469 7.37146H80.7337C79.4196 7.37146 78.3234 7.50152 77.445 7.76162C76.5666 8.02173 75.8616 8.42886 75.33 8.98301C74.7743 9.58249 74.3799 10.319 74.1854 11.1207C73.9538 11.9921 73.838 13.0384 73.8379 14.2595V19.0348C73.8379 19.1168 73.8537 19.1981 73.8844 19.2738C73.9151 19.3496 73.9601 19.4185 74.0168 19.4765C74.0735 19.5345 74.1408 19.5805 74.2149 19.6119C74.2891 19.6433 74.3685 19.6594 74.4487 19.6594H77.3702C77.4505 19.6594 77.5299 19.6433 77.604 19.6119C77.6782 19.5805 77.7455 19.5345 77.8023 19.4765C77.859 19.4185 77.904 19.3497 77.9347 19.2739C77.9654 19.1981 77.9812 19.1169 77.9813 19.0348V15.1759C77.9722 14.5786 78.0205 13.9819 78.1256 13.3943C78.1938 12.9712 78.3686 12.5735 78.6328 12.2406C78.8926 11.9462 79.2295 11.7342 79.6036 11.6297C80.1043 11.4936 80.6213 11.4309 81.1392 11.4435H88.8467C89.1945 11.4435 89.3683 11.2398 89.3682 10.8326V7.98198C89.3682 7.57512 89.1945 7.37161 88.8469 7.37146Z" fill="white"/>
<path d="M94.2069 7.37151V2.89256C94.2069 2.39546 94.4193 2.14669 94.8442 2.14624H97.7129C98.1373 2.14624 98.3498 2.39501 98.3502 2.89256V7.37151H103.421C103.768 7.37151 103.942 7.57502 103.942 7.98203V10.7646C103.942 11.172 103.768 11.3757 103.421 11.3755H98.3501V19.2476C98.3501 20.1979 98.5143 20.8935 98.8426 21.3342C99.1708 21.7749 99.818 21.9956 100.784 21.9962H103.595C103.942 21.9962 104.116 22.1997 104.116 22.6067V25.3892C104.116 25.7966 103.943 26.0002 103.595 26.0001H100.089C98.9298 26.0001 97.9736 25.8756 97.22 25.6266C96.5194 25.4127 95.8918 25.0012 95.4093 24.4394C94.9553 23.8962 94.6414 23.1947 94.4676 22.335C94.2799 21.3173 94.1926 20.283 94.207 19.2475V11.3755H91.4541C91.1068 11.3755 90.933 11.1719 90.9326 10.7646V7.98215C90.9326 7.57528 91.1064 7.37177 91.4541 7.37162L94.2069 7.37151Z" fill="white"/>
<path d="M52.5275 14.0732H48.6561C48.5688 14.0732 48.498 14.1456 48.498 14.2348V18.3143C48.498 18.4035 48.5688 18.4758 48.6561 18.4758H52.5275C52.6147 18.4758 52.6855 18.4035 52.6855 18.3143V14.2348C52.6855 14.1456 52.6147 14.0732 52.5275 14.0732Z" fill="white"/>
<path d="M70.1425 11.1207C69.9478 10.3192 69.5536 9.58273 68.9982 8.98301C68.4665 8.42931 67.7566 8.02218 66.8684 7.76163C65.9802 7.50107 64.8888 7.37101 63.5943 7.37146H55.3944C54.0804 7.37146 52.9841 7.50152 52.1055 7.76163C51.2269 8.02173 50.5218 8.42886 49.9902 8.98301C49.4348 9.58267 49.0405 10.3191 48.8459 11.1207C48.6347 11.9702 48.5209 12.8419 48.5067 13.7182C48.5067 13.7266 48.5043 13.7345 48.5043 13.743V14.2736H48.5067C48.513 14.3538 48.5485 14.4287 48.6063 14.4834C48.664 14.538 48.7398 14.5685 48.8185 14.5686H52.3522C52.4309 14.5685 52.5067 14.5381 52.5644 14.4834C52.6222 14.4288 52.6577 14.3538 52.6639 14.2736H52.6654L52.6665 14.2606C52.6852 13.9413 52.7251 13.6235 52.7861 13.3097C52.8583 12.888 53.0324 12.4914 53.2926 12.156C53.5462 11.8542 53.8855 11.6406 54.2633 11.5451C54.7658 11.4206 55.282 11.3635 55.7989 11.3753H63.1876C63.7142 11.3626 64.2402 11.4196 64.7524 11.5451C65.1301 11.641 65.4692 11.8545 65.7231 12.156C65.9827 12.4918 66.1568 12.8882 66.2296 13.3097C66.3352 13.8914 66.3836 14.4825 66.3743 15.0741V18.2977C66.3845 18.9005 66.336 19.5028 66.2296 20.0958C66.1594 20.5131 65.9849 20.9049 65.7231 21.233C65.4635 21.5275 65.1265 21.7394 64.7524 21.8436C64.2422 21.9816 63.7152 22.0446 63.1876 22.0306H55.7989C55.281 22.0435 54.7638 21.9805 54.2633 21.8436C53.889 21.7398 53.552 21.5278 53.2926 21.233C53.0302 20.9053 52.8557 20.5133 52.7861 20.0958C52.7055 19.6635 52.6602 19.2251 52.6509 18.7852V18.5055C52.6509 18.4633 52.6427 18.4214 52.6269 18.3824C52.6111 18.3434 52.5879 18.308 52.5587 18.2781C52.5295 18.2483 52.4948 18.2246 52.4567 18.2084C52.4185 18.1923 52.3776 18.184 52.3363 18.184H48.8126C48.7713 18.184 48.7304 18.1923 48.6923 18.2084C48.6541 18.2246 48.6194 18.2483 48.5902 18.2781C48.561 18.308 48.5378 18.3434 48.522 18.3824C48.5062 18.4214 48.4981 18.4633 48.498 18.5055V19.146C48.498 20.3674 48.614 21.4136 48.8459 22.2847C49.0402 23.0864 49.4344 23.8229 49.9902 24.4222C50.5217 24.9771 51.2268 25.3787 52.1055 25.6271C52.9842 25.8755 54.0805 26 55.3944 26.0006H63.5943C64.888 26.0006 65.9794 25.8761 66.8684 25.6271C67.7574 25.3781 68.4673 24.9765 68.9982 24.4222C69.5539 23.8228 69.9482 23.0864 70.1425 22.2847C70.3744 21.4139 70.4904 20.3677 70.4904 19.146V14.2591C70.4904 13.038 70.3744 11.9919 70.1425 11.1207Z" fill="white"/>
<path d="M77.6063 21.7181H74.2568C74.0254 21.7181 73.8379 21.9099 73.8379 22.1465V25.5717C73.8379 25.8083 74.0254 26 74.2568 26H77.6063C77.8377 26 78.0252 25.8083 78.0252 25.5717V22.1465C78.0252 21.9099 77.8377 21.7181 77.6063 21.7181Z" fill="#F9A912"/>
<path d="M125.279 10.3406C125.124 9.62745 124.858 9.05048 124.482 8.60968C124.071 8.14709 123.537 7.81686 122.946 7.65932C122.299 7.46723 121.483 7.37103 120.498 7.37073H112.008C110.694 7.37073 109.598 7.50078 108.719 7.76089C107.841 8.021 107.136 8.42832 106.604 8.98284C106.048 9.58228 105.654 10.3188 105.46 11.1206C105.228 11.992 105.112 13.0382 105.112 14.2593V15.1854H102.236C102.156 15.1854 102.076 15.2015 102.002 15.2329C101.928 15.2643 101.861 15.3103 101.804 15.3683C101.747 15.4263 101.702 15.4951 101.671 15.5709C101.641 15.6467 101.625 15.7279 101.625 15.81V17.561C101.625 17.6431 101.641 17.7243 101.671 17.8001C101.702 17.8759 101.747 17.9447 101.804 18.0027C101.861 18.0607 101.928 18.1067 102.002 18.1381C102.076 18.1695 102.156 18.1857 102.236 18.1856H105.112V19.1457C105.112 20.3671 105.228 21.4134 105.46 22.2844C105.654 23.0863 106.048 23.8228 106.604 24.422C107.135 24.9768 107.84 25.3784 108.719 25.6268C109.598 25.8752 110.695 25.9997 112.008 26.0003H124.496C124.844 26.0003 125.018 25.7967 125.018 25.3894V22.5388C125.018 22.1314 124.844 21.9278 124.496 21.9279H112.413C111.158 21.9279 110.313 21.6904 109.878 21.2153C109.444 20.7402 109.227 19.9712 109.227 18.9082V18.0936H123.859C124.419 18.0936 124.834 17.9524 125.105 17.6698C125.375 17.3873 125.511 16.8839 125.51 16.1598V12.9362C125.524 12.065 125.446 11.1949 125.279 10.3406ZM121.454 14.497C121.454 14.8821 121.29 15.0744 120.961 15.0739H109.227V14.1578C109.227 13.0722 109.444 12.2975 109.878 11.8336C110.313 11.3697 111.158 11.1378 112.414 11.1379H119.686C120.362 11.1379 120.826 11.2849 121.077 11.579C121.328 11.873 121.454 12.3708 121.454 13.0722L121.454 14.497Z" fill="white"/>
<path d="M49.6686 6.75106V2.39001H30.9001C30.5729 2.39 30.2488 2.45589 29.9465 2.58393C29.6442 2.71197 29.3695 2.89965 29.1381 3.13625C28.9067 3.37284 28.7232 3.65372 28.5979 3.96286C28.4727 4.272 28.4082 4.60334 28.4082 4.93795V25.9994H32.6732V16.3917H46.3337V11.9983H32.6732V6.75106H49.6686Z" fill="white"/>
<path d="M148.912 6.31018C150.217 6.31018 151.312 6.44761 152.199 6.72251C153.086 6.99741 153.802 7.42785 154.346 8.01383C154.892 8.5998 155.276 9.35288 155.5 10.2731C155.725 11.1932 155.837 12.299 155.836 13.5903V25.211C155.836 25.737 155.622 26 155.194 26.0001H152.331C151.902 26.0001 151.688 25.7371 151.688 25.211V14.81C151.695 14.1802 151.656 13.5509 151.571 12.9271C151.522 12.4908 151.372 12.0728 151.133 11.7077C150.906 11.3997 150.589 11.1735 150.228 11.062C149.724 10.9153 149.202 10.8488 148.679 10.8649H143.538V25.211C143.538 25.737 143.314 26 142.866 26.0001H140.003C139.574 26.0001 139.36 25.7371 139.36 25.211V10.8656H134.394C133.871 10.8522 133.349 10.9186 132.846 11.0626C132.465 11.1755 132.124 11.4 131.867 11.7084C131.599 12.0643 131.423 12.4837 131.356 12.9278C131.25 13.5493 131.201 14.1797 131.21 14.8107V25.211C131.21 25.737 130.995 26 130.567 26.0001H127.704C127.256 26.0001 127.032 25.7371 127.032 25.211V13.5905C127.032 12.2994 127.149 11.1936 127.383 10.2733C127.616 9.35298 128.001 8.59987 128.537 8.01405C129.072 7.42852 129.783 6.99811 130.669 6.72276C131.555 6.44741 132.661 6.30995 133.985 6.3104L148.912 6.31018Z" fill="white"/>
<path d="M161.581 21.718H158.231C158 21.718 157.812 21.9098 157.812 22.1464V25.5716C157.812 25.8081 158 25.9999 158.231 25.9999H161.581C161.812 25.9999 162 25.8081 162 25.5716V22.1464C162 21.9098 161.812 21.718 161.581 21.718Z" fill="#11ECC7"/>
</g>
<defs>
<clipPath id="clip0_152_16501">
<rect width="162" height="26" fill="white"/>
</clipPath>
</defs>
</svg>
