<svg width="160" height="160" viewBox="0 0 160 160" fill="none" xmlns="http://www.w3.org/2000/svg">
<rect width="160" height="160" rx="9.66134" fill="white"/>
<path d="M20.5088 16.1023H16.1021V20.509H20.5088V16.1023Z" fill="black"/>
<path d="M20.5088 20.5092H16.1021V24.9159H20.5088V20.5092Z" fill="black"/>
<path d="M20.5088 24.9158H16.1021V29.3225H20.5088V24.9158Z" fill="black"/>
<path d="M20.5088 29.3226H16.1021V33.7294H20.5088V29.3226Z" fill="black"/>
<path d="M20.5088 33.7292H16.1021V38.136H20.5088V33.7292Z" fill="black"/>
<path d="M20.5088 38.1361H16.1021V42.5429H20.5088V38.1361Z" fill="black"/>
<path d="M20.5088 42.5427H16.1021V46.9495H20.5088V42.5427Z" fill="black"/>
<path d="M20.5088 51.3562H16.1021V55.7629H20.5088V51.3562Z" fill="black"/>
<path d="M20.5088 60.1697H16.1021V64.5764H20.5088V60.1697Z" fill="black"/>
<path d="M20.5088 64.5765H16.1021V68.9833H20.5088V64.5765Z" fill="black"/>
<path d="M20.5088 68.9832H16.1021V73.3899H20.5088V68.9832Z" fill="black"/>
<path d="M20.5088 86.6101H16.1021V91.0168H20.5088V86.6101Z" fill="black"/>
<path d="M20.5088 113.051H16.1021V117.457H20.5088V113.051Z" fill="black"/>
<path d="M20.5088 117.457H16.1021V121.864H20.5088V117.457Z" fill="black"/>
<path d="M20.5088 121.864H16.1021V126.271H20.5088V121.864Z" fill="black"/>
<path d="M20.5088 126.271H16.1021V130.678H20.5088V126.271Z" fill="black"/>
<path d="M20.5088 130.678H16.1021V135.084H20.5088V130.678Z" fill="black"/>
<path d="M20.5088 135.084H16.1021V139.491H20.5088V135.084Z" fill="black"/>
<path d="M20.5088 139.491H16.1021V143.898H20.5088V139.491Z" fill="black"/>
<path d="M24.9165 16.1023H20.5098V20.509H24.9165V16.1023Z" fill="black"/>
<path d="M24.9165 42.5427H20.5098V46.9495H24.9165V42.5427Z" fill="black"/>
<path d="M24.9165 51.3562H20.5098V55.7629H24.9165V51.3562Z" fill="black"/>
<path d="M24.9165 55.7631H20.5098V60.1698H24.9165V55.7631Z" fill="black"/>
<path d="M24.9165 73.39H20.5098V77.7968H24.9165V73.39Z" fill="black"/>
<path d="M24.9165 82.2035H20.5098V86.6102H24.9165V82.2035Z" fill="black"/>
<path d="M24.9165 86.6101H20.5098V91.0168H24.9165V86.6101Z" fill="black"/>
<path d="M24.9165 95.4238H20.5098V99.8306H24.9165V95.4238Z" fill="black"/>
<path d="M24.9165 99.8304H20.5098V104.237H24.9165V99.8304Z" fill="black"/>
<path d="M24.9165 104.237H20.5098V108.644H24.9165V104.237Z" fill="black"/>
<path d="M24.9165 113.051H20.5098V117.457H24.9165V113.051Z" fill="black"/>
<path d="M24.9165 139.491H20.5098V143.898H24.9165V139.491Z" fill="black"/>
<path d="M29.3228 16.1023H24.916V20.509H29.3228V16.1023Z" fill="black"/>
<path d="M29.3228 24.9158H24.916V29.3225H29.3228V24.9158Z" fill="black"/>
<path d="M29.3228 29.3226H24.916V33.7294H29.3228V29.3226Z" fill="black"/>
<path d="M29.3228 33.7292H24.916V38.136H29.3228V33.7292Z" fill="black"/>
<path d="M29.3228 42.5428H24.916V46.9496H29.3228V42.5428Z" fill="black"/>
<path d="M29.3228 51.3563H24.916V55.7631H29.3228V51.3563Z" fill="black"/>
<path d="M29.3228 60.1698H24.916V64.5765H29.3228V60.1698Z" fill="black"/>
<path d="M29.3228 73.39H24.916V77.7968H29.3228V73.39Z" fill="black"/>
<path d="M29.3228 77.7968H24.916V82.2035H29.3228V77.7968Z" fill="black"/>
<path d="M29.3228 86.6102H24.916V91.017H29.3228V86.6102Z" fill="black"/>
<path d="M29.3228 95.4237H24.916V99.8304H29.3228V95.4237Z" fill="black"/>
<path d="M29.3228 99.8304H24.916V104.237H29.3228V99.8304Z" fill="black"/>
<path d="M29.3228 113.051H24.916V117.458H29.3228V113.051Z" fill="black"/>
<path d="M29.3228 121.864H24.916V126.271H29.3228V121.864Z" fill="black"/>
<path d="M29.3228 126.271H24.916V130.678H29.3228V126.271Z" fill="black"/>
<path d="M29.3228 130.678H24.916V135.084H29.3228V130.678Z" fill="black"/>
<path d="M29.3228 139.491H24.916V143.898H29.3228V139.491Z" fill="black"/>
<path d="M33.729 16.1023H29.3223V20.509H33.729V16.1023Z" fill="black"/>
<path d="M33.729 24.9158H29.3223V29.3225H33.729V24.9158Z" fill="black"/>
<path d="M33.729 29.3226H29.3223V33.7294H33.729V29.3226Z" fill="black"/>
<path d="M33.729 33.7292H29.3223V38.136H33.729V33.7292Z" fill="black"/>
<path d="M33.729 42.5428H29.3223V46.9496H33.729V42.5428Z" fill="black"/>
<path d="M33.729 51.3563H29.3223V55.7631H33.729V51.3563Z" fill="black"/>
<path d="M33.729 60.1698H29.3223V64.5765H33.729V60.1698Z" fill="black"/>
<path d="M33.729 64.5765H29.3223V68.9833H33.729V64.5765Z" fill="black"/>
<path d="M33.729 68.9833H29.3223V73.39H33.729V68.9833Z" fill="black"/>
<path d="M33.729 86.6102H29.3223V91.017H33.729V86.6102Z" fill="black"/>
<path d="M33.729 113.051H29.3223V117.458H33.729V113.051Z" fill="black"/>
<path d="M33.729 121.864H29.3223V126.271H33.729V121.864Z" fill="black"/>
<path d="M33.729 126.271H29.3223V130.678H33.729V126.271Z" fill="black"/>
<path d="M33.729 130.678H29.3223V135.084H33.729V130.678Z" fill="black"/>
<path d="M33.729 139.491H29.3223V143.898H33.729V139.491Z" fill="black"/>
<path d="M38.1362 16.1023H33.7295V20.509H38.1362V16.1023Z" fill="black"/>
<path d="M38.1362 24.9158H33.7295V29.3225H38.1362V24.9158Z" fill="black"/>
<path d="M38.1362 29.3226H33.7295V33.7294H38.1362V29.3226Z" fill="black"/>
<path d="M38.1362 33.7292H33.7295V38.136H38.1362V33.7292Z" fill="black"/>
<path d="M38.1362 42.5427H33.7295V46.9495H38.1362V42.5427Z" fill="black"/>
<path d="M38.1362 51.3562H33.7295V55.7629H38.1362V51.3562Z" fill="black"/>
<path d="M38.1362 64.5765H33.7295V68.9833H38.1362V64.5765Z" fill="black"/>
<path d="M38.1362 68.9832H33.7295V73.3899H38.1362V68.9832Z" fill="black"/>
<path d="M38.1362 73.39H33.7295V77.7968H38.1362V73.39Z" fill="black"/>
<path d="M38.1362 82.2035H33.7295V86.6102H38.1362V82.2035Z" fill="black"/>
<path d="M38.1362 86.6101H33.7295V91.0168H38.1362V86.6101Z" fill="black"/>
<path d="M38.1362 91.017H33.7295V95.4237H38.1362V91.017Z" fill="black"/>
<path d="M38.1362 104.237H33.7295V108.644H38.1362V104.237Z" fill="black"/>
<path d="M38.1362 113.051H33.7295V117.457H38.1362V113.051Z" fill="black"/>
<path d="M38.1362 121.864H33.7295V126.271H38.1362V121.864Z" fill="black"/>
<path d="M38.1362 126.271H33.7295V130.678H38.1362V126.271Z" fill="black"/>
<path d="M38.1362 130.678H33.7295V135.084H38.1362V130.678Z" fill="black"/>
<path d="M38.1362 139.491H33.7295V143.898H38.1362V139.491Z" fill="black"/>
<path d="M42.543 16.1023H38.1362V20.509H42.543V16.1023Z" fill="black"/>
<path d="M42.543 42.5428H38.1362V46.9496H42.543V42.5428Z" fill="black"/>
<path d="M42.543 55.7631H38.1362V60.1698H42.543V55.7631Z" fill="black"/>
<path d="M42.543 60.1698H38.1362V64.5765H42.543V60.1698Z" fill="black"/>
<path d="M42.543 77.7968H38.1362V82.2035H42.543V77.7968Z" fill="black"/>
<path d="M42.543 86.6102H38.1362V91.017H42.543V86.6102Z" fill="black"/>
<path d="M42.543 91.017H38.1362V95.4237H42.543V91.017Z" fill="black"/>
<path d="M42.543 95.4237H38.1362V99.8304H42.543V95.4237Z" fill="black"/>
<path d="M42.543 99.8304H38.1362V104.237H42.543V99.8304Z" fill="black"/>
<path d="M42.543 104.237H38.1362V108.644H42.543V104.237Z" fill="black"/>
<path d="M42.543 113.051H38.1362V117.458H42.543V113.051Z" fill="black"/>
<path d="M42.543 139.491H38.1362V143.898H42.543V139.491Z" fill="black"/>
<path d="M46.9497 16.1023H42.543V20.509H46.9497V16.1023Z" fill="black"/>
<path d="M46.9497 20.5092H42.543V24.9159H46.9497V20.5092Z" fill="black"/>
<path d="M46.9497 24.9158H42.543V29.3225H46.9497V24.9158Z" fill="black"/>
<path d="M46.9497 29.3226H42.543V33.7294H46.9497V29.3226Z" fill="black"/>
<path d="M46.9497 33.7292H42.543V38.136H46.9497V33.7292Z" fill="black"/>
<path d="M46.9497 38.1361H42.543V42.5429H46.9497V38.1361Z" fill="black"/>
<path d="M46.9497 42.5428H42.543V46.9496H46.9497V42.5428Z" fill="black"/>
<path d="M46.9497 51.3563H42.543V55.7631H46.9497V51.3563Z" fill="black"/>
<path d="M46.9497 60.1698H42.543V64.5765H46.9497V60.1698Z" fill="black"/>
<path d="M46.9497 68.9833H42.543V73.39H46.9497V68.9833Z" fill="black"/>
<path d="M46.9497 77.7968H42.543V82.2035H46.9497V77.7968Z" fill="black"/>
<path d="M46.9497 86.6102H42.543V91.017H46.9497V86.6102Z" fill="black"/>
<path d="M46.9497 95.4237H42.543V99.8304H46.9497V95.4237Z" fill="black"/>
<path d="M46.9497 104.237H42.543V108.644H46.9497V104.237Z" fill="black"/>
<path d="M46.9497 113.051H42.543V117.458H46.9497V113.051Z" fill="black"/>
<path d="M46.9497 117.457H42.543V121.864H46.9497V117.457Z" fill="black"/>
<path d="M46.9497 121.864H42.543V126.271H46.9497V121.864Z" fill="black"/>
<path d="M46.9497 126.271H42.543V130.678H46.9497V126.271Z" fill="black"/>
<path d="M46.9497 130.678H42.543V135.084H46.9497V130.678Z" fill="black"/>
<path d="M46.9497 135.084H42.543V139.491H46.9497V135.084Z" fill="black"/>
<path d="M46.9497 139.491H42.543V143.898H46.9497V139.491Z" fill="black"/>
<path d="M51.3569 51.3562H46.9502V55.7629H51.3569V51.3562Z" fill="black"/>
<path d="M51.3569 55.7631H46.9502V60.1698H51.3569V55.7631Z" fill="black"/>
<path d="M51.3569 60.1697H46.9502V64.5764H51.3569V60.1697Z" fill="black"/>
<path d="M51.3569 64.5765H46.9502V68.9833H51.3569V64.5765Z" fill="black"/>
<path d="M51.3569 73.39H46.9502V77.7968H51.3569V73.39Z" fill="black"/>
<path d="M51.3569 86.6101H46.9502V91.0168H51.3569V86.6101Z" fill="black"/>
<path d="M55.7632 20.5092H51.3564V24.9159H55.7632V20.5092Z" fill="black"/>
<path d="M55.7632 29.3226H51.3564V33.7294H55.7632V29.3226Z" fill="black"/>
<path d="M55.7632 38.1361H51.3564V42.5429H55.7632V38.1361Z" fill="black"/>
<path d="M55.7632 42.5428H51.3564V46.9496H55.7632V42.5428Z" fill="black"/>
<path d="M55.7632 51.3563H51.3564V55.7631H55.7632V51.3563Z" fill="black"/>
<path d="M55.7632 73.39H51.3564V77.7968H55.7632V73.39Z" fill="black"/>
<path d="M55.7632 77.7968H51.3564V82.2035H55.7632V77.7968Z" fill="black"/>
<path d="M55.7632 86.6102H51.3564V91.017H55.7632V86.6102Z" fill="black"/>
<path d="M55.7632 95.4237H51.3564V99.8304H55.7632V95.4237Z" fill="black"/>
<path d="M55.7632 99.8304H51.3564V104.237H55.7632V99.8304Z" fill="black"/>
<path d="M55.7632 108.644H51.3564V113.051H55.7632V108.644Z" fill="black"/>
<path d="M55.7632 113.051H51.3564V117.458H55.7632V113.051Z" fill="black"/>
<path d="M55.7632 121.864H51.3564V126.271H55.7632V121.864Z" fill="black"/>
<path d="M55.7632 126.271H51.3564V130.678H55.7632V126.271Z" fill="black"/>
<path d="M55.7632 130.678H51.3564V135.084H55.7632V130.678Z" fill="black"/>
<path d="M55.7632 135.084H51.3564V139.491H55.7632V135.084Z" fill="black"/>
<path d="M55.7632 139.491H51.3564V143.898H55.7632V139.491Z" fill="black"/>
<path d="M60.1694 16.1023H55.7627V20.509H60.1694V16.1023Z" fill="black"/>
<path d="M60.1694 20.5092H55.7627V24.9159H60.1694V20.5092Z" fill="black"/>
<path d="M60.1694 24.9158H55.7627V29.3225H60.1694V24.9158Z" fill="black"/>
<path d="M60.1694 29.3226H55.7627V33.7294H60.1694V29.3226Z" fill="black"/>
<path d="M60.1694 51.3563H55.7627V55.7631H60.1694V51.3563Z" fill="black"/>
<path d="M60.1694 55.7631H55.7627V60.1698H60.1694V55.7631Z" fill="black"/>
<path d="M60.1694 60.1698H55.7627V64.5765H60.1694V60.1698Z" fill="black"/>
<path d="M60.1694 64.5765H55.7627V68.9833H60.1694V64.5765Z" fill="black"/>
<path d="M60.1694 68.9833H55.7627V73.39H60.1694V68.9833Z" fill="black"/>
<path d="M60.1694 82.2035H55.7627V86.6102H60.1694V82.2035Z" fill="black"/>
<path d="M60.1694 104.237H55.7627V108.644H60.1694V104.237Z" fill="black"/>
<path d="M60.1694 108.644H55.7627V113.051H60.1694V108.644Z" fill="black"/>
<path d="M60.1694 117.457H55.7627V121.864H60.1694V117.457Z" fill="black"/>
<path d="M60.1694 121.864H55.7627V126.271H60.1694V121.864Z" fill="black"/>
<path d="M60.1694 126.271H55.7627V130.678H60.1694V126.271Z" fill="black"/>
<path d="M60.1694 130.678H55.7627V135.084H60.1694V130.678Z" fill="black"/>
<path d="M60.1694 139.491H55.7627V143.898H60.1694V139.491Z" fill="black"/>
<path d="M64.5762 24.9158H60.1694V29.3225H64.5762V24.9158Z" fill="black"/>
<path d="M64.5762 33.7292H60.1694V38.136H64.5762V33.7292Z" fill="black"/>
<path d="M64.5762 38.1361H60.1694V42.5429H64.5762V38.1361Z" fill="black"/>
<path d="M64.5762 42.5427H60.1694V46.9495H64.5762V42.5427Z" fill="black"/>
<path d="M64.5762 51.3562H60.1694V55.7629H64.5762V51.3562Z" fill="black"/>
<path d="M64.5762 64.5765H60.1694V68.9833H64.5762V64.5765Z" fill="black"/>
<path d="M64.5762 73.39H60.1694V77.7968H64.5762V73.39Z" fill="black"/>
<path d="M64.5762 77.7966H60.1694V82.2034H64.5762V77.7966Z" fill="black"/>
<path d="M64.5762 86.6101H60.1694V91.0168H64.5762V86.6101Z" fill="black"/>
<path d="M64.5762 95.4238H60.1694V99.8306H64.5762V95.4238Z" fill="black"/>
<path d="M64.5762 99.8304H60.1694V104.237H64.5762V99.8304Z" fill="black"/>
<path d="M64.5762 104.237H60.1694V108.644H64.5762V104.237Z" fill="black"/>
<path d="M64.5762 108.644H60.1694V113.051H64.5762V108.644Z" fill="black"/>
<path d="M64.5762 117.457H60.1694V121.864H64.5762V117.457Z" fill="black"/>
<path d="M64.5762 121.864H60.1694V126.271H64.5762V121.864Z" fill="black"/>
<path d="M64.5762 126.271H60.1694V130.678H64.5762V126.271Z" fill="black"/>
<path d="M64.5762 135.084H60.1694V139.491H64.5762V135.084Z" fill="black"/>
<path d="M68.9834 20.5092H64.5767V24.9159H68.9834V20.5092Z" fill="black"/>
<path d="M68.9834 24.9158H64.5767V29.3225H68.9834V24.9158Z" fill="black"/>
<path d="M68.9834 29.3226H64.5767V33.7294H68.9834V29.3226Z" fill="black"/>
<path d="M68.9834 60.1697H64.5767V64.5764H68.9834V60.1697Z" fill="black"/>
<path d="M68.9834 64.5765H64.5767V68.9833H68.9834V64.5765Z" fill="black"/>
<path d="M68.9834 68.9832H64.5767V73.3899H68.9834V68.9832Z" fill="black"/>
<path d="M68.9834 95.4238H64.5767V99.8306H68.9834V95.4238Z" fill="black"/>
<path d="M68.9834 99.8304H64.5767V104.237H68.9834V99.8304Z" fill="black"/>
<path d="M68.9834 104.237H64.5767V108.644H68.9834V104.237Z" fill="black"/>
<path d="M68.9834 130.678H64.5767V135.084H68.9834V130.678Z" fill="black"/>
<path d="M68.9834 135.084H64.5767V139.491H68.9834V135.084Z" fill="black"/>
<path d="M68.9834 139.491H64.5767V143.898H68.9834V139.491Z" fill="black"/>
<path d="M73.3901 20.5092H68.9834V24.9159H73.3901V20.5092Z" fill="black"/>
<path d="M73.3901 33.7292H68.9834V38.136H73.3901V33.7292Z" fill="black"/>
<path d="M73.3901 42.5428H68.9834V46.9496H73.3901V42.5428Z" fill="black"/>
<path d="M73.3901 46.9496H68.9834V51.3563H73.3901V46.9496Z" fill="black"/>
<path d="M73.3901 51.3563H68.9834V55.7631H73.3901V51.3563Z" fill="black"/>
<path d="M73.3901 60.1698H68.9834V64.5765H73.3901V60.1698Z" fill="black"/>
<path d="M73.3901 73.39H68.9834V77.7968H73.3901V73.39Z" fill="black"/>
<path d="M73.3901 82.2035H68.9834V86.6102H73.3901V82.2035Z" fill="black"/>
<path d="M73.3901 86.6102H68.9834V91.017H73.3901V86.6102Z" fill="black"/>
<path d="M73.3901 95.4237H68.9834V99.8304H73.3901V95.4237Z" fill="black"/>
<path d="M73.3901 108.644H68.9834V113.051H73.3901V108.644Z" fill="black"/>
<path d="M73.3901 117.457H68.9834V121.864H73.3901V117.457Z" fill="black"/>
<path d="M73.3901 121.864H68.9834V126.271H73.3901V121.864Z" fill="black"/>
<path d="M73.3901 130.678H68.9834V135.084H73.3901V130.678Z" fill="black"/>
<path d="M77.7964 33.7292H73.3896V38.136H77.7964V33.7292Z" fill="black"/>
<path d="M77.7964 38.1361H73.3896V42.5429H77.7964V38.1361Z" fill="black"/>
<path d="M77.7964 46.9496H73.3896V51.3563H77.7964V46.9496Z" fill="black"/>
<path d="M77.7964 73.39H73.3896V77.7968H77.7964V73.39Z" fill="black"/>
<path d="M77.7964 77.7966H73.3896V82.2034H77.7964V77.7966Z" fill="black"/>
<path d="M77.7964 82.2035H73.3896V86.6102H77.7964V82.2035Z" fill="black"/>
<path d="M77.7964 108.644H73.3896V113.051H77.7964V108.644Z" fill="black"/>
<path d="M77.7964 113.051H73.3896V117.457H77.7964V113.051Z" fill="black"/>
<path d="M77.7964 117.457H73.3896V121.864H77.7964V117.457Z" fill="black"/>
<path d="M82.2036 24.9158H77.7969V29.3225H82.2036V24.9158Z" fill="black"/>
<path d="M82.2036 33.7292H77.7969V38.136H82.2036V33.7292Z" fill="black"/>
<path d="M82.2036 38.1361H77.7969V42.5429H82.2036V38.1361Z" fill="black"/>
<path d="M82.2036 42.5427H77.7969V46.9495H82.2036V42.5427Z" fill="black"/>
<path d="M82.2036 51.3562H77.7969V55.7629H82.2036V51.3562Z" fill="black"/>
<path d="M82.2036 64.5765H77.7969V68.9833H82.2036V64.5765Z" fill="black"/>
<path d="M82.2036 73.39H77.7969V77.7968H82.2036V73.39Z" fill="black"/>
<path d="M82.2036 77.7966H77.7969V82.2034H82.2036V77.7966Z" fill="black"/>
<path d="M82.2036 86.6101H77.7969V91.0168H82.2036V86.6101Z" fill="black"/>
<path d="M82.2036 99.8304H77.7969V104.237H82.2036V99.8304Z" fill="black"/>
<path d="M82.2036 108.644H77.7969V113.051H82.2036V108.644Z" fill="black"/>
<path d="M82.2036 113.051H77.7969V117.457H82.2036V113.051Z" fill="black"/>
<path d="M82.2036 121.864H77.7969V126.271H82.2036V121.864Z" fill="black"/>
<path d="M82.2036 135.084H77.7969V139.491H82.2036V135.084Z" fill="black"/>
<path d="M86.6099 16.1023H82.2031V20.509H86.6099V16.1023Z" fill="black"/>
<path d="M86.6099 33.7292H82.2031V38.136H86.6099V33.7292Z" fill="black"/>
<path d="M86.6099 38.1361H82.2031V42.5429H86.6099V38.1361Z" fill="black"/>
<path d="M86.6099 46.9496H82.2031V51.3563H86.6099V46.9496Z" fill="black"/>
<path d="M86.6099 60.1698H82.2031V64.5765H86.6099V60.1698Z" fill="black"/>
<path d="M86.6099 77.7968H82.2031V82.2035H86.6099V77.7968Z" fill="black"/>
<path d="M86.6099 82.2035H82.2031V86.6102H86.6099V82.2035Z" fill="black"/>
<path d="M86.6099 86.6102H82.2031V91.017H86.6099V86.6102Z" fill="black"/>
<path d="M86.6099 95.4237H82.2031V99.8304H86.6099V95.4237Z" fill="black"/>
<path d="M86.6099 104.237H82.2031V108.644H86.6099V104.237Z" fill="black"/>
<path d="M86.6099 113.051H82.2031V117.458H86.6099V113.051Z" fill="black"/>
<path d="M86.6099 117.457H82.2031V121.864H86.6099V117.457Z" fill="black"/>
<path d="M86.6099 130.678H82.2031V135.084H86.6099V130.678Z" fill="black"/>
<path d="M86.6099 135.084H82.2031V139.491H86.6099V135.084Z" fill="black"/>
<path d="M91.0166 16.1023H86.6099V20.509H91.0166V16.1023Z" fill="black"/>
<path d="M91.0166 24.9158H86.6099V29.3225H91.0166V24.9158Z" fill="black"/>
<path d="M91.0166 38.1361H86.6099V42.5429H91.0166V38.1361Z" fill="black"/>
<path d="M91.0166 42.5427H86.6099V46.9495H91.0166V42.5427Z" fill="black"/>
<path d="M91.0166 68.9832H86.6099V73.3899H91.0166V68.9832Z" fill="black"/>
<path d="M91.0166 95.4238H86.6099V99.8306H91.0166V95.4238Z" fill="black"/>
<path d="M91.0166 104.237H86.6099V108.644H91.0166V104.237Z" fill="black"/>
<path d="M91.0166 108.644H86.6099V113.051H91.0166V108.644Z" fill="black"/>
<path d="M91.0166 113.051H86.6099V117.457H91.0166V113.051Z" fill="black"/>
<path d="M91.0166 126.271H86.6099V130.678H91.0166V126.271Z" fill="black"/>
<path d="M95.4243 16.1023H91.0176V20.509H95.4243V16.1023Z" fill="black"/>
<path d="M95.4243 20.5092H91.0176V24.9159H95.4243V20.5092Z" fill="black"/>
<path d="M95.4243 29.3226H91.0176V33.7294H95.4243V29.3226Z" fill="black"/>
<path d="M95.4243 51.3562H91.0176V55.7629H95.4243V51.3562Z" fill="black"/>
<path d="M95.4243 55.7631H91.0176V60.1698H95.4243V55.7631Z" fill="black"/>
<path d="M95.4243 68.9832H91.0176V73.3899H95.4243V68.9832Z" fill="black"/>
<path d="M95.4243 73.39H91.0176V77.7968H95.4243V73.39Z" fill="black"/>
<path d="M95.4243 77.7966H91.0176V82.2034H95.4243V77.7966Z" fill="black"/>
<path d="M95.4243 86.6101H91.0176V91.0168H95.4243V86.6101Z" fill="black"/>
<path d="M95.4243 95.4238H91.0176V99.8306H95.4243V95.4238Z" fill="black"/>
<path d="M95.4243 104.237H91.0176V108.644H95.4243V104.237Z" fill="black"/>
<path d="M95.4243 121.864H91.0176V126.271H95.4243V121.864Z" fill="black"/>
<path d="M95.4243 139.491H91.0176V143.898H95.4243V139.491Z" fill="black"/>
<path d="M99.8306 16.1023H95.4238V20.509H99.8306V16.1023Z" fill="black"/>
<path d="M99.8306 24.9158H95.4238V29.3225H99.8306V24.9158Z" fill="black"/>
<path d="M99.8306 33.7292H95.4238V38.136H99.8306V33.7292Z" fill="black"/>
<path d="M99.8306 42.5428H95.4238V46.9496H99.8306V42.5428Z" fill="black"/>
<path d="M99.8306 46.9496H95.4238V51.3563H99.8306V46.9496Z" fill="black"/>
<path d="M99.8306 55.7631H95.4238V60.1698H99.8306V55.7631Z" fill="black"/>
<path d="M99.8306 60.1698H95.4238V64.5765H99.8306V60.1698Z" fill="black"/>
<path d="M99.8306 73.39H95.4238V77.7968H99.8306V73.39Z" fill="black"/>
<path d="M99.8306 82.2035H95.4238V86.6102H99.8306V82.2035Z" fill="black"/>
<path d="M99.8306 91.017H95.4238V95.4237H99.8306V91.017Z" fill="black"/>
<path d="M99.8306 104.237H95.4238V108.644H99.8306V104.237Z" fill="black"/>
<path d="M99.8306 108.644H95.4238V113.051H99.8306V108.644Z" fill="black"/>
<path d="M99.8306 113.051H95.4238V117.458H99.8306V113.051Z" fill="black"/>
<path d="M99.8306 117.457H95.4238V121.864H99.8306V117.457Z" fill="black"/>
<path d="M99.8306 135.084H95.4238V139.491H99.8306V135.084Z" fill="black"/>
<path d="M104.237 16.1023H99.8306V20.509H104.237V16.1023Z" fill="black"/>
<path d="M104.237 29.3226H99.8306V33.7294H104.237V29.3226Z" fill="black"/>
<path d="M104.237 33.7292H99.8306V38.136H104.237V33.7292Z" fill="black"/>
<path d="M104.237 46.9496H99.8306V51.3563H104.237V46.9496Z" fill="black"/>
<path d="M104.237 55.7631H99.8306V60.1698H104.237V55.7631Z" fill="black"/>
<path d="M104.237 73.39H99.8306V77.7968H104.237V73.39Z" fill="black"/>
<path d="M104.237 82.2035H99.8306V86.6102H104.237V82.2035Z" fill="black"/>
<path d="M104.237 91.017H99.8306V95.4237H104.237V91.017Z" fill="black"/>
<path d="M104.237 99.8304H99.8306V104.237H104.237V99.8304Z" fill="black"/>
<path d="M104.237 104.237H99.8306V108.644H104.237V104.237Z" fill="black"/>
<path d="M104.237 113.051H99.8306V117.457H104.237V113.051Z" fill="black"/>
<path d="M104.237 117.457H99.8306V121.864H104.237V117.457Z" fill="black"/>
<path d="M104.237 130.678H99.8306V135.084H104.237V130.678Z" fill="black"/>
<path d="M104.237 139.491H99.8306V143.898H104.237V139.491Z" fill="black"/>
<path d="M108.643 16.1023H104.236V20.509H108.643V16.1023Z" fill="black"/>
<path d="M108.643 20.5092H104.236V24.9159H108.643V20.5092Z" fill="black"/>
<path d="M108.643 33.7292H104.236V38.136H108.643V33.7292Z" fill="black"/>
<path d="M108.643 42.5427H104.236V46.9495H108.643V42.5427Z" fill="black"/>
<path d="M108.643 46.9496H104.236V51.3563H108.643V46.9496Z" fill="black"/>
<path d="M108.643 55.7631H104.236V60.1698H108.643V55.7631Z" fill="black"/>
<path d="M108.643 86.6101H104.236V91.0168H108.643V86.6101Z" fill="black"/>
<path d="M108.643 91.017H104.236V95.4237H108.643V91.017Z" fill="black"/>
<path d="M108.643 95.4238H104.236V99.8306H108.643V95.4238Z" fill="black"/>
<path d="M108.643 99.8304H104.236V104.237H108.643V99.8304Z" fill="black"/>
<path d="M108.643 104.237H104.236V108.644H108.643V104.237Z" fill="black"/>
<path d="M108.643 108.644H104.236V113.051H108.643V108.644Z" fill="black"/>
<path d="M108.643 113.051H104.236V117.457H108.643V113.051Z" fill="black"/>
<path d="M108.643 117.457H104.236V121.864H108.643V117.457Z" fill="black"/>
<path d="M108.643 121.864H104.236V126.271H108.643V121.864Z" fill="black"/>
<path d="M108.643 126.271H104.236V130.678H108.643V126.271Z" fill="black"/>
<path d="M108.643 135.084H104.236V139.491H108.643V135.084Z" fill="black"/>
<path d="M113.051 51.3563H108.644V55.7631H113.051V51.3563Z" fill="black"/>
<path d="M113.051 55.7631H108.644V60.1698H113.051V55.7631Z" fill="black"/>
<path d="M113.051 73.39H108.644V77.7968H113.051V73.39Z" fill="black"/>
<path d="M113.051 91.017H108.644V95.4237H113.051V91.017Z" fill="black"/>
<path d="M113.051 104.237H108.644V108.644H113.051V104.237Z" fill="black"/>
<path d="M113.051 121.864H108.644V126.271H113.051V121.864Z" fill="black"/>
<path d="M113.051 126.271H108.644V130.678H113.051V126.271Z" fill="black"/>
<path d="M113.051 130.678H108.644V135.084H113.051V130.678Z" fill="black"/>
<path d="M113.051 135.084H108.644V139.491H113.051V135.084Z" fill="black"/>
<path d="M113.051 139.491H108.644V143.898H113.051V139.491Z" fill="black"/>
<path d="M117.458 16.1023H113.051V20.509H117.458V16.1023Z" fill="black"/>
<path d="M117.458 20.5092H113.051V24.9159H117.458V20.5092Z" fill="black"/>
<path d="M117.458 24.9158H113.051V29.3225H117.458V24.9158Z" fill="black"/>
<path d="M117.458 29.3226H113.051V33.7294H117.458V29.3226Z" fill="black"/>
<path d="M117.458 33.7292H113.051V38.136H117.458V33.7292Z" fill="black"/>
<path d="M117.458 38.1361H113.051V42.5429H117.458V38.1361Z" fill="black"/>
<path d="M117.458 42.5428H113.051V46.9496H117.458V42.5428Z" fill="black"/>
<path d="M117.458 55.7631H113.051V60.1698H117.458V55.7631Z" fill="black"/>
<path d="M117.458 60.1698H113.051V64.5765H117.458V60.1698Z" fill="black"/>
<path d="M117.458 64.5765H113.051V68.9833H117.458V64.5765Z" fill="black"/>
<path d="M117.458 73.39H113.051V77.7968H117.458V73.39Z" fill="black"/>
<path d="M117.458 77.7968H113.051V82.2035H117.458V77.7968Z" fill="black"/>
<path d="M117.458 91.017H113.051V95.4237H117.458V91.017Z" fill="black"/>
<path d="M117.458 104.237H113.051V108.644H117.458V104.237Z" fill="black"/>
<path d="M117.458 113.051H113.051V117.458H117.458V113.051Z" fill="black"/>
<path d="M117.458 121.864H113.051V126.271H117.458V121.864Z" fill="black"/>
<path d="M117.458 130.678H113.051V135.084H117.458V130.678Z" fill="black"/>
<path d="M121.865 16.1023H117.458V20.509H121.865V16.1023Z" fill="black"/>
<path d="M121.865 42.5427H117.458V46.9495H121.865V42.5427Z" fill="black"/>
<path d="M121.865 51.3562H117.458V55.7629H121.865V51.3562Z" fill="black"/>
<path d="M121.865 55.7631H117.458V60.1698H121.865V55.7631Z" fill="black"/>
<path d="M121.865 60.1697H117.458V64.5764H121.865V60.1697Z" fill="black"/>
<path d="M121.865 68.9832H117.458V73.3899H121.865V68.9832Z" fill="black"/>
<path d="M121.865 73.39H117.458V77.7968H121.865V73.39Z" fill="black"/>
<path d="M121.865 77.7966H117.458V82.2034H121.865V77.7966Z" fill="black"/>
<path d="M121.865 82.2035H117.458V86.6102H121.865V82.2035Z" fill="black"/>
<path d="M121.865 91.017H117.458V95.4237H121.865V91.017Z" fill="black"/>
<path d="M121.865 95.4238H117.458V99.8306H121.865V95.4238Z" fill="black"/>
<path d="M121.865 99.8304H117.458V104.237H121.865V99.8304Z" fill="black"/>
<path d="M121.865 104.237H117.458V108.644H121.865V104.237Z" fill="black"/>
<path d="M121.865 121.864H117.458V126.271H121.865V121.864Z" fill="black"/>
<path d="M121.865 126.271H117.458V130.678H121.865V126.271Z" fill="black"/>
<path d="M121.865 130.678H117.458V135.084H121.865V130.678Z" fill="black"/>
<path d="M121.865 135.084H117.458V139.491H121.865V135.084Z" fill="black"/>
<path d="M126.271 16.1023H121.864V20.509H126.271V16.1023Z" fill="black"/>
<path d="M126.271 24.9158H121.864V29.3225H126.271V24.9158Z" fill="black"/>
<path d="M126.271 29.3226H121.864V33.7294H126.271V29.3226Z" fill="black"/>
<path d="M126.271 33.7292H121.864V38.136H126.271V33.7292Z" fill="black"/>
<path d="M126.271 42.5428H121.864V46.9496H126.271V42.5428Z" fill="black"/>
<path d="M126.271 55.7631H121.864V60.1698H126.271V55.7631Z" fill="black"/>
<path d="M126.271 64.5765H121.864V68.9833H126.271V64.5765Z" fill="black"/>
<path d="M126.271 73.39H121.864V77.7968H126.271V73.39Z" fill="black"/>
<path d="M126.271 77.7968H121.864V82.2035H126.271V77.7968Z" fill="black"/>
<path d="M126.271 82.2035H121.864V86.6102H126.271V82.2035Z" fill="black"/>
<path d="M126.271 91.017H121.864V95.4237H126.271V91.017Z" fill="black"/>
<path d="M126.271 99.8304H121.864V104.237H126.271V99.8304Z" fill="black"/>
<path d="M126.271 104.237H121.864V108.644H126.271V104.237Z" fill="black"/>
<path d="M126.271 108.644H121.864V113.051H126.271V108.644Z" fill="black"/>
<path d="M126.271 113.051H121.864V117.458H126.271V113.051Z" fill="black"/>
<path d="M126.271 117.457H121.864V121.864H126.271V117.457Z" fill="black"/>
<path d="M126.271 121.864H121.864V126.271H126.271V121.864Z" fill="black"/>
<path d="M126.271 130.678H121.864V135.084H126.271V130.678Z" fill="black"/>
<path d="M126.271 135.084H121.864V139.491H126.271V135.084Z" fill="black"/>
<path d="M126.271 139.491H121.864V143.898H126.271V139.491Z" fill="black"/>
<path d="M130.677 16.1023H126.271V20.509H130.677V16.1023Z" fill="black"/>
<path d="M130.677 24.9158H126.271V29.3225H130.677V24.9158Z" fill="black"/>
<path d="M130.677 29.3226H126.271V33.7294H130.677V29.3226Z" fill="black"/>
<path d="M130.677 33.7292H126.271V38.136H130.677V33.7292Z" fill="black"/>
<path d="M130.677 42.5428H126.271V46.9496H130.677V42.5428Z" fill="black"/>
<path d="M130.677 51.3563H126.271V55.7631H130.677V51.3563Z" fill="black"/>
<path d="M130.677 64.5765H126.271V68.9833H130.677V64.5765Z" fill="black"/>
<path d="M130.677 77.7968H126.271V82.2035H130.677V77.7968Z" fill="black"/>
<path d="M130.677 82.2035H126.271V86.6102H130.677V82.2035Z" fill="black"/>
<path d="M130.677 86.6102H126.271V91.017H130.677V86.6102Z" fill="black"/>
<path d="M130.677 99.8304H126.271V104.237H130.677V99.8304Z" fill="black"/>
<path d="M130.677 108.644H126.271V113.051H130.677V108.644Z" fill="black"/>
<path d="M130.677 113.051H126.271V117.458H130.677V113.051Z" fill="black"/>
<path d="M130.677 135.084H126.271V139.491H130.677V135.084Z" fill="black"/>
<path d="M135.084 16.1023H130.677V20.509H135.084V16.1023Z" fill="black"/>
<path d="M135.084 24.9158H130.677V29.3225H135.084V24.9158Z" fill="black"/>
<path d="M135.084 29.3226H130.677V33.7294H135.084V29.3226Z" fill="black"/>
<path d="M135.084 33.7292H130.677V38.136H135.084V33.7292Z" fill="black"/>
<path d="M135.084 42.5427H130.677V46.9495H135.084V42.5427Z" fill="black"/>
<path d="M135.084 68.9832H130.677V73.3899H135.084V68.9832Z" fill="black"/>
<path d="M135.084 86.6101H130.677V91.0168H135.084V86.6101Z" fill="black"/>
<path d="M135.084 95.4238H130.677V99.8306H135.084V95.4238Z" fill="black"/>
<path d="M135.084 104.237H130.677V108.644H135.084V104.237Z" fill="black"/>
<path d="M135.084 121.864H130.677V126.271H135.084V121.864Z" fill="black"/>
<path d="M135.084 139.491H130.677V143.898H135.084V139.491Z" fill="black"/>
<path d="M139.491 16.1023H135.084V20.509H139.491V16.1023Z" fill="black"/>
<path d="M139.491 42.5427H135.084V46.9495H139.491V42.5427Z" fill="black"/>
<path d="M139.491 51.3562H135.084V55.7629H139.491V51.3562Z" fill="black"/>
<path d="M139.491 55.7631H135.084V60.1698H139.491V55.7631Z" fill="black"/>
<path d="M139.491 60.1697H135.084V64.5764H139.491V60.1697Z" fill="black"/>
<path d="M139.491 91.017H135.084V95.4237H139.491V91.017Z" fill="black"/>
<path d="M139.491 104.237H135.084V108.644H139.491V104.237Z" fill="black"/>
<path d="M139.491 121.864H135.084V126.271H139.491V121.864Z" fill="black"/>
<path d="M139.491 126.271H135.084V130.678H139.491V126.271Z" fill="black"/>
<path d="M139.491 130.678H135.084V135.084H139.491V130.678Z" fill="black"/>
<path d="M139.491 135.084H135.084V139.491H139.491V135.084Z" fill="black"/>
<path d="M143.898 16.1023H139.491V20.509H143.898V16.1023Z" fill="black"/>
<path d="M143.898 20.5092H139.491V24.9159H143.898V20.5092Z" fill="black"/>
<path d="M143.898 24.9158H139.491V29.3225H143.898V24.9158Z" fill="black"/>
<path d="M143.898 29.3226H139.491V33.7294H143.898V29.3226Z" fill="black"/>
<path d="M143.898 33.7292H139.491V38.136H143.898V33.7292Z" fill="black"/>
<path d="M143.898 38.1361H139.491V42.5429H143.898V38.1361Z" fill="black"/>
<path d="M143.898 42.5428H139.491V46.9496H143.898V42.5428Z" fill="black"/>
<path d="M143.898 55.7631H139.491V60.1698H143.898V55.7631Z" fill="black"/>
<path d="M143.898 73.39H139.491V77.7968H143.898V73.39Z" fill="black"/>
<path d="M143.898 82.2035H139.491V86.6102H143.898V82.2035Z" fill="black"/>
<path d="M143.898 86.6102H139.491V91.017H143.898V86.6102Z" fill="black"/>
<path d="M143.898 91.017H139.491V95.4237H143.898V91.017Z" fill="black"/>
<path d="M143.898 104.237H139.491V108.644H143.898V104.237Z" fill="black"/>
<path d="M143.898 117.457H139.491V121.864H143.898V117.457Z" fill="black"/>
<path d="M143.898 126.271H139.491V130.678H143.898V126.271Z" fill="black"/>
</svg>
