<svg width="24" height="24" viewBox="0 0 24 24" fill="none" xmlns="http://www.w3.org/2000/svg">
<rect width="24" height="24" rx="12" fill="#11ECC7"/>
<path d="M14.6159 9.84852L10.7394 13.7251L9.12108 12.1068C9.03561 12.0213 8.91968 11.9733 8.7988 11.9733C8.67792 11.9733 8.56199 12.0213 8.47651 12.1068C8.39104 12.1923 8.34302 12.3082 8.34302 12.4291C8.34302 12.489 8.35481 12.5482 8.37771 12.6035C8.40062 12.6588 8.43419 12.7091 8.47651 12.7514L10.4148 14.6897C10.5931 14.868 10.8811 14.868 11.0594 14.6897L15.2559 10.4931C15.2985 10.4503 15.3322 10.3995 15.3551 10.3437C15.378 10.2878 15.3895 10.2279 15.3891 10.1676C15.3886 10.1072 15.3763 10.0475 15.3526 9.99197C15.329 9.93643 15.2946 9.88612 15.2514 9.84395C15.0822 9.67024 14.7942 9.67024 14.6159 9.84852Z" fill="#161D26"/>
</svg>
