<svg width="140" height="140" viewBox="0 0 140 140" fill="none" xmlns="http://www.w3.org/2000/svg">
<rect width="140" height="140" rx="70" fill="#16837C"/>
<path d="M85.2586 57.4499L62.6452 80.0632L53.2052 70.6232C52.7066 70.1246 52.0304 69.8445 51.3252 69.8445C50.6201 69.8445 49.9438 70.1246 49.4452 70.6232C48.9466 71.1218 48.6665 71.7981 48.6665 72.5032C48.6665 72.8524 48.7353 73.1981 48.8689 73.5207C49.0025 73.8432 49.1983 74.1363 49.4452 74.3832L60.7519 85.6899C61.7919 86.7299 63.4719 86.7299 64.5119 85.6899L88.9919 61.2099C89.2404 60.9604 89.437 60.6641 89.5703 60.3382C89.7036 60.0122 89.771 59.6631 89.7685 59.311C89.766 58.9588 89.6938 58.6107 89.5559 58.2867C89.418 57.9626 89.2172 57.6692 88.9652 57.4232C87.9786 56.4099 86.2986 56.4099 85.2586 57.4499Z" fill="white"/>
</svg>
