<svg width="32" height="32" viewBox="0 0 32 32" fill="none" xmlns="http://www.w3.org/2000/svg">
<path d="M31.5213 19.8705C29.3841 28.442 20.7016 33.6584 12.1281 31.521C3.55818 29.3841 -1.65886 20.702 0.479231 12.1312C2.61545 3.5587 11.298 -1.65814 19.8688 0.478775C28.4417 2.61569 33.6584 11.2987 31.521 19.8706L31.5212 19.8705H31.5213Z" fill="#22C55E"/>
<path fill-rule="evenodd" clip-rule="evenodd" d="M18.0269 17.8139C17.9138 17.8224 17.3292 17.8573 16.0251 17.8573C14.988 17.8573 14.2516 17.8262 13.9932 17.8139C9.98497 17.6376 6.99316 16.94 6.99316 16.1047C6.99316 15.2693 9.98497 14.5726 13.9932 14.3935V17.1191C14.2553 17.1379 15.0059 17.1823 16.0431 17.1823C17.2877 17.1823 17.9109 17.1304 18.0231 17.12V14.3954C22.0229 14.5736 25.0081 15.2712 25.0081 16.1047C25.0081 16.9381 22.0238 17.6357 18.0231 17.813L18.0269 17.8139ZM18.0267 14.1135V11.6745H23.6087V7.9552H8.4111V11.6745H13.9921V14.1125C9.45582 14.3209 6.04443 15.2194 6.04443 16.296C6.04443 17.3727 9.45582 18.2702 13.9921 18.4795V26.2952H18.0258V18.4767C22.5517 18.2684 25.9574 17.3708 25.9574 16.2951C25.9574 15.2194 22.5545 14.3218 18.0258 14.1125L18.0267 14.1135Z" fill="white"/>
</svg>
