<svg width="141" height="56" viewBox="0 0 141 56" fill="none" xmlns="http://www.w3.org/2000/svg">
<path d="M30.3068 35H25.598V20.4545H30.456C31.8812 20.4545 33.1051 20.7457 34.1278 21.3281C35.1506 21.9058 35.9342 22.7367 36.4787 23.821C37.0279 24.9006 37.3026 26.1955 37.3026 27.706C37.3026 29.2211 37.0256 30.5232 36.4716 31.6122C35.9223 32.7012 35.1269 33.5393 34.0852 34.1264C33.0436 34.7088 31.7841 35 30.3068 35ZM27.7926 33.0824H30.1861C31.294 33.0824 32.215 32.8741 32.9489 32.4574C33.6828 32.036 34.232 31.4276 34.5966 30.6321C34.9612 29.8319 35.1435 28.8565 35.1435 27.706C35.1435 26.5649 34.9612 25.5966 34.5966 24.8011C34.2367 24.0057 33.6993 23.402 32.9844 22.9901C32.2694 22.5781 31.3816 22.3722 30.321 22.3722H27.7926V33.0824ZM44.5629 35.2202C43.488 35.2202 42.5624 34.9905 41.7859 34.5312C41.0141 34.0672 40.4175 33.4162 39.9961 32.5781C39.5794 31.7353 39.3711 30.7481 39.3711 29.6165C39.3711 28.4991 39.5794 27.5142 39.9961 26.6619C40.4175 25.8097 41.0046 25.1444 41.7575 24.6662C42.515 24.188 43.4004 23.9489 44.4137 23.9489C45.0292 23.9489 45.6258 24.0507 46.2035 24.2543C46.7811 24.4579 47.2996 24.7775 47.7589 25.2131C48.2182 25.6487 48.5804 26.2145 48.8455 26.9105C49.1107 27.6018 49.2433 28.4422 49.2433 29.4318V30.1847H40.5714V28.5938H47.1623C47.1623 28.035 47.0487 27.5402 46.8214 27.1094C46.5941 26.6738 46.2745 26.3305 45.8626 26.0795C45.4554 25.8286 44.9772 25.7031 44.4279 25.7031C43.8313 25.7031 43.3105 25.8499 42.8654 26.1435C42.4251 26.4323 42.0842 26.8111 41.8427 27.2798C41.6059 27.7438 41.4876 28.2481 41.4876 28.7926V30.0355C41.4876 30.7647 41.6154 31.3849 41.8711 31.8963C42.1315 32.4077 42.4937 32.7983 42.9577 33.0682C43.4218 33.3333 43.9639 33.4659 44.5842 33.4659C44.9866 33.4659 45.3536 33.4091 45.685 33.2955C46.0165 33.1771 46.3029 33.0019 46.5444 32.7699C46.7859 32.5379 46.9705 32.2514 47.0984 31.9105L49.1083 32.2727C48.9473 32.8646 48.6585 33.383 48.2418 33.8281C47.8299 34.2685 47.3114 34.6117 46.6864 34.858C46.0662 35.0994 45.3583 35.2202 44.5629 35.2202ZM51.5994 39.0909V24.0909H53.6733V25.8594H53.8509C53.974 25.6321 54.1515 25.3693 54.3835 25.071C54.6155 24.7727 54.9375 24.5123 55.3494 24.2898C55.7614 24.0625 56.3059 23.9489 56.983 23.9489C57.8636 23.9489 58.6496 24.1714 59.3409 24.6165C60.0322 25.0616 60.5743 25.7031 60.9673 26.5412C61.3651 27.3793 61.5639 28.3878 61.5639 29.5668C61.5639 30.7457 61.3674 31.7566 60.9744 32.5994C60.5814 33.4375 60.0417 34.0838 59.3551 34.5384C58.6686 34.9882 57.8849 35.2131 57.0043 35.2131C56.3414 35.2131 55.7992 35.1018 55.3778 34.8793C54.9612 34.6567 54.6345 34.3963 54.3977 34.098C54.161 33.7997 53.9787 33.5346 53.8509 33.3026H53.723V39.0909H51.5994ZM53.6804 29.5455C53.6804 30.3125 53.7917 30.9848 54.0142 31.5625C54.2367 32.1402 54.5587 32.5923 54.9801 32.919C55.4015 33.241 55.9176 33.402 56.5284 33.402C57.1629 33.402 57.6932 33.2339 58.1193 32.8977C58.5455 32.5568 58.8674 32.0952 59.0852 31.5128C59.3078 30.9304 59.419 30.2746 59.419 29.5455C59.419 28.8258 59.3101 28.1795 59.0923 27.6065C58.8793 27.0336 58.5573 26.5814 58.1264 26.25C57.7003 25.9186 57.1676 25.7528 56.5284 25.7528C55.9129 25.7528 55.392 25.9115 54.9659 26.2287C54.5445 26.5459 54.2249 26.9886 54.0071 27.5568C53.7893 28.125 53.6804 28.7879 53.6804 29.5455ZM68.5384 35.2202C67.5156 35.2202 66.6231 34.9858 65.8608 34.517C65.0985 34.0483 64.5066 33.3925 64.0852 32.5497C63.6638 31.7069 63.4531 30.7221 63.4531 29.5952C63.4531 28.4635 63.6638 27.474 64.0852 26.6264C64.5066 25.7789 65.0985 25.1207 65.8608 24.652C66.6231 24.1832 67.5156 23.9489 68.5384 23.9489C69.5611 23.9489 70.4536 24.1832 71.2159 24.652C71.9782 25.1207 72.5701 25.7789 72.9915 26.6264C73.4129 27.474 73.6236 28.4635 73.6236 29.5952C73.6236 30.7221 73.4129 31.7069 72.9915 32.5497C72.5701 33.3925 71.9782 34.0483 71.2159 34.517C70.4536 34.9858 69.5611 35.2202 68.5384 35.2202ZM68.5455 33.4375C69.2083 33.4375 69.7576 33.2623 70.1932 32.9119C70.6288 32.5616 70.9508 32.0952 71.1591 31.5128C71.3722 30.9304 71.4787 30.2888 71.4787 29.5881C71.4787 28.892 71.3722 28.2528 71.1591 27.6705C70.9508 27.0833 70.6288 26.6122 70.1932 26.2571C69.7576 25.902 69.2083 25.7244 68.5455 25.7244C67.8778 25.7244 67.3239 25.902 66.8835 26.2571C66.4479 26.6122 66.1236 27.0833 65.9105 27.6705C65.7022 28.2528 65.598 28.892 65.598 29.5881C65.598 30.2888 65.7022 30.9304 65.9105 31.5128C66.1236 32.0952 66.4479 32.5616 66.8835 32.9119C67.3239 33.2623 67.8778 33.4375 68.5455 33.4375ZM84.1687 26.7543L82.244 27.0952C82.1635 26.849 82.0356 26.6146 81.8604 26.392C81.69 26.1695 81.458 25.9872 81.1644 25.8452C80.8709 25.7031 80.5039 25.6321 80.0636 25.6321C79.4622 25.6321 78.9603 25.767 78.5579 26.0369C78.1554 26.3021 77.9542 26.6454 77.9542 27.0668C77.9542 27.4313 78.0891 27.7249 78.359 27.9474C78.6289 28.17 79.0645 28.3523 79.6658 28.4943L81.3988 28.892C82.4026 29.1241 83.1507 29.4815 83.6431 29.9645C84.1355 30.4474 84.3817 31.0748 84.3817 31.8466C84.3817 32.5 84.1924 33.0824 83.8136 33.5938C83.4395 34.1004 82.9163 34.4981 82.244 34.7869C81.5763 35.0758 80.8022 35.2202 79.9215 35.2202C78.6999 35.2202 77.7032 34.9598 76.9315 34.4389C76.1597 33.9134 75.6862 33.1676 75.511 32.2017L77.5636 31.8892C77.6914 32.4242 77.9542 32.8291 78.3519 33.1037C78.7496 33.3736 79.2681 33.5085 79.9073 33.5085C80.6033 33.5085 81.1597 33.3641 81.5763 33.0753C81.993 32.7817 82.2013 32.4242 82.2013 32.0028C82.2013 31.6619 82.0735 31.3755 81.8178 31.1435C81.5669 30.9115 81.181 30.7363 80.6602 30.6179L78.8136 30.2131C77.7956 29.9811 77.0427 29.6117 76.555 29.1051C76.0721 28.5985 75.8306 27.9569 75.8306 27.1804C75.8306 26.5365 76.0105 25.973 76.3704 25.4901C76.7302 25.0071 77.2274 24.6307 77.8619 24.3608C78.4963 24.0862 79.2231 23.9489 80.0423 23.9489C81.2212 23.9489 82.1493 24.2045 82.8263 24.7159C83.5034 25.2225 83.9509 25.902 84.1687 26.7543ZM86.7166 35V24.0909H88.8402V35H86.7166ZM87.7891 22.4077C87.4197 22.4077 87.1025 22.2846 86.8374 22.0384C86.5769 21.7874 86.4467 21.4891 86.4467 21.1435C86.4467 20.7931 86.5769 20.4948 86.8374 20.2486C87.1025 19.9976 87.4197 19.8722 87.7891 19.8722C88.1584 19.8722 88.4732 19.9976 88.7337 20.2486C88.9988 20.4948 89.1314 20.7931 89.1314 21.1435C89.1314 21.4891 88.9988 21.7874 88.7337 22.0384C88.4732 22.2846 88.1584 22.4077 87.7891 22.4077ZM96.7894 24.0909V25.7955H90.8306V24.0909H96.7894ZM92.4286 21.4773H94.5522V31.7969C94.5522 32.2088 94.6138 32.5189 94.7369 32.7273C94.86 32.9309 95.0186 33.0705 95.2127 33.1463C95.4116 33.2173 95.627 33.2528 95.859 33.2528C96.0295 33.2528 96.1786 33.241 96.3065 33.2173C96.4343 33.1937 96.5337 33.1747 96.6048 33.1605L96.9883 34.9148C96.8652 34.9621 96.69 35.0095 96.4627 35.0568C96.2354 35.1089 95.9513 35.1373 95.6104 35.142C95.0517 35.1515 94.5309 35.0521 94.0479 34.8438C93.565 34.6354 93.1744 34.3134 92.8761 33.8778C92.5778 33.4422 92.4286 32.8954 92.4286 32.2372V21.4773ZM102.313 35.2415C101.622 35.2415 100.997 35.1136 100.438 34.858C99.8795 34.5975 99.4368 34.2211 99.1101 33.7287C98.7881 33.2363 98.6271 32.6326 98.6271 31.9176C98.6271 31.3021 98.7455 30.7955 98.9822 30.3977C99.219 30 99.5386 29.6851 99.9411 29.4531C100.344 29.2211 100.793 29.0459 101.29 28.9276C101.788 28.8092 102.294 28.7192 102.81 28.6577C103.464 28.5819 103.994 28.5204 104.401 28.473C104.808 28.4209 105.104 28.3381 105.289 28.2244C105.474 28.1108 105.566 27.9261 105.566 27.6705V27.6207C105.566 27.0005 105.391 26.5199 105.04 26.179C104.695 25.8381 104.179 25.6676 103.492 25.6676C102.777 25.6676 102.214 25.8262 101.802 26.1435C101.395 26.456 101.113 26.804 100.957 27.1875L98.9609 26.733C99.1977 26.0701 99.5433 25.535 99.9979 25.1278C100.457 24.7159 100.985 24.4176 101.582 24.233C102.178 24.0436 102.806 23.9489 103.464 23.9489C103.899 23.9489 104.361 24.0009 104.849 24.1051C105.341 24.2045 105.8 24.3892 106.227 24.6591C106.657 24.929 107.01 25.3149 107.285 25.8168C107.559 26.3139 107.697 26.9602 107.697 27.7557V35H105.623V33.5085H105.538C105.4 33.7831 105.194 34.053 104.92 34.3182C104.645 34.5833 104.292 34.8035 103.862 34.9787C103.431 35.1539 102.915 35.2415 102.313 35.2415ZM102.775 33.5369C103.362 33.5369 103.864 33.4209 104.281 33.1889C104.702 32.9569 105.022 32.6539 105.239 32.2798C105.462 31.901 105.573 31.4962 105.573 31.0653V29.6591C105.497 29.7348 105.351 29.8059 105.133 29.8722C104.92 29.9337 104.676 29.9882 104.401 30.0355C104.127 30.0781 103.859 30.1184 103.599 30.1562C103.338 30.1894 103.121 30.2178 102.945 30.2415C102.533 30.2936 102.157 30.3812 101.816 30.5043C101.48 30.6274 101.21 30.8049 101.006 31.0369C100.808 31.2642 100.708 31.5672 100.708 31.946C100.708 32.4716 100.902 32.8693 101.29 33.1392C101.679 33.4044 102.174 33.5369 102.775 33.5369ZM110.525 35V24.0909H112.578V25.8239H112.691C112.89 25.2367 113.241 24.7751 113.743 24.4389C114.249 24.098 114.822 23.9276 115.461 23.9276C115.594 23.9276 115.75 23.9323 115.93 23.9418C116.115 23.9512 116.259 23.9631 116.363 23.9773V26.0085C116.278 25.9848 116.127 25.9588 115.909 25.9304C115.691 25.8973 115.473 25.8807 115.255 25.8807C114.753 25.8807 114.306 25.9872 113.913 26.2003C113.525 26.4086 113.217 26.6998 112.99 27.0739C112.762 27.4432 112.649 27.8646 112.649 28.3381V35H110.525Z" fill="#F7F9FC"/>
<rect x="0.5" y="0.5" width="140" height="55" rx="11.5" stroke="url(#paint0_linear_152_16481)"/>
<defs>
<linearGradient id="paint0_linear_152_16481" x1="18.9948" y1="10" x2="122.998" y2="35.7946" gradientUnits="userSpaceOnUse">
<stop stop-color="#11ECC7"/>
<stop offset="0.990032" stop-color="#F9A912"/>
</linearGradient>
</defs>
</svg>
