<svg viewBox="112.122 45.268 177.846 73.804" width="250" height="103"><defs><linearGradient gradientUnits="userSpaceOnUse" x1="218.257" y1="90.143" x2="218.257" y2="112.395" id="gradient-4"><stop offset="0" style="stop-color: rgba(17, 235, 199, 1)"></stop><stop offset="1" style="stop-color: rgba(10, 140, 118, 1)"></stop></linearGradient></defs><path d="M 135.437 71.061 L 121.891 71.061 C 121.803 71.061 121.719 71.026 121.657 70.962 C 121.595 70.899 121.56 70.813 121.56 70.723 L 121.56 66.698 C 121.56 66.609 121.595 66.523 121.657 66.459 C 121.719 66.396 121.803 66.361 121.891 66.361 L 131.914 66.361 C 132.936 66.361 133.916 66.776 134.639 67.515 C 135.362 68.254 135.768 69.256 135.768 70.302 L 135.768 70.723 C 135.768 70.813 135.733 70.899 135.671 70.962 C 135.609 71.026 135.525 71.061 135.437 71.061 Z" fill="#11ECC7"></path><path d="M 136.81 83.765 C 135.76 83.765 134.754 83.339 134.012 82.579 C 133.269 81.82 132.852 80.791 132.852 79.718 C 132.852 79.65 132.865 79.582 132.891 79.519 C 132.916 79.456 132.954 79.399 133.001 79.351 C 132.928 79.39 132.848 79.41 132.766 79.41 L 122.063 79.41 C 121.996 79.41 121.93 79.397 121.868 79.37 C 121.807 79.344 121.751 79.306 121.704 79.258 C 121.656 79.21 121.619 79.153 121.593 79.09 C 121.568 79.027 121.555 78.959 121.555 78.891 L 121.555 75.362 C 121.555 75.225 121.608 75.093 121.703 74.995 C 121.799 74.898 121.928 74.843 122.062 74.843 L 129.315 74.843 C 130.365 74.843 131.371 75.27 132.114 76.029 C 132.856 76.788 133.273 77.817 133.273 78.891 C 133.273 78.959 133.26 79.026 133.234 79.089 C 133.209 79.152 133.171 79.209 133.124 79.257 C 133.197 79.219 133.278 79.198 133.36 79.198 L 143.732 79.198 C 143.799 79.198 143.865 79.212 143.926 79.238 C 143.988 79.264 144.044 79.302 144.091 79.35 C 144.138 79.399 144.176 79.456 144.201 79.519 C 144.227 79.582 144.24 79.649 144.24 79.717 L 144.24 83.246 C 144.24 83.384 144.186 83.516 144.091 83.613 C 143.996 83.71 143.867 83.765 143.732 83.765 L 136.81 83.765 Z" fill="#11ECC7"></path><path d="M 136.275 70.738 L 143.732 70.738 C 143.867 70.738 143.996 70.793 144.091 70.89 C 144.186 70.987 144.239 71.119 144.239 71.257 L 144.239 74.785 C 144.239 74.923 144.186 75.055 144.091 75.152 C 143.996 75.25 143.867 75.304 143.732 75.304 L 139.726 75.304 C 138.676 75.304 137.669 74.878 136.927 74.119 C 136.185 73.36 135.768 72.33 135.768 71.257 C 135.768 71.119 135.821 70.987 135.916 70.89 C 136.011 70.793 136.14 70.738 136.275 70.738 Z" fill="#F9A912"></path><path d="M 130.415 87.66 L 143.962 87.66 C 144.05 87.66 144.134 87.695 144.196 87.759 C 144.258 87.822 144.292 87.908 144.292 87.998 L 144.292 92.023 C 144.292 92.112 144.258 92.198 144.196 92.262 C 144.134 92.325 144.05 92.361 143.962 92.361 L 133.939 92.361 C 132.917 92.361 131.937 91.945 131.214 91.206 C 130.491 90.467 130.085 89.465 130.085 88.419 L 130.085 87.998 C 130.085 87.908 130.12 87.822 130.182 87.759 C 130.244 87.695 130.328 87.66 130.415 87.66 Z" fill="#11ECC7"></path><path d="M 129.849 87.871 L 122.068 87.871 C 121.933 87.871 121.804 87.816 121.709 87.719 C 121.614 87.622 121.56 87.49 121.56 87.352 L 121.56 83.823 C 121.56 83.686 121.614 83.554 121.709 83.456 C 121.804 83.359 121.933 83.304 122.068 83.304 L 126.398 83.304 C 127.448 83.304 128.455 83.731 129.197 84.49 C 129.939 85.249 130.357 86.278 130.357 87.352 C 130.357 87.49 130.303 87.622 130.208 87.719 C 130.113 87.816 129.984 87.871 129.849 87.871 Z" fill="#11ECC7"></path><path d="M 210.402 73.732 L 202.288 73.732 C 200.974 73.732 199.878 73.862 199 74.122 C 198.121 74.382 197.416 74.789 196.885 75.344 C 196.329 75.943 195.935 76.68 195.74 77.481 C 195.509 78.353 195.393 79.399 195.393 80.62 L 195.393 85.395 C 195.393 85.478 195.408 85.559 195.439 85.635 C 195.47 85.71 195.515 85.779 195.572 85.837 C 195.628 85.895 195.696 85.941 195.77 85.973 C 195.844 86.004 195.923 86.02 196.003 86.02 L 198.925 86.02 C 199.005 86.02 199.085 86.004 199.159 85.973 C 199.233 85.941 199.3 85.895 199.357 85.837 C 199.414 85.779 199.459 85.71 199.489 85.635 C 199.52 85.559 199.536 85.478 199.536 85.395 L 199.536 81.537 C 199.527 80.939 199.575 80.343 199.68 79.755 C 199.749 79.332 199.923 78.934 200.188 78.601 C 200.447 78.307 200.784 78.095 201.158 77.99 C 201.659 77.854 202.176 77.792 202.694 77.804 L 210.401 77.804 C 210.749 77.804 210.923 77.601 210.923 77.193 L 210.923 74.343 C 210.923 73.936 210.749 73.732 210.402 73.732 Z" fill="white"></path><path d="M 215.762 73.732 L 215.762 69.253 C 215.762 68.756 215.974 68.507 216.399 68.507 L 219.268 68.507 C 219.692 68.507 219.905 68.756 219.905 69.253 L 219.905 73.732 L 224.976 73.732 C 225.323 73.732 225.497 73.936 225.497 74.343 L 225.497 77.125 C 225.497 77.533 225.323 77.736 224.976 77.736 L 219.905 77.736 L 219.905 85.608 C 219.905 86.559 220.069 87.254 220.397 87.695 C 220.726 88.136 221.373 88.356 222.339 88.357 L 225.15 88.357 C 225.497 88.357 225.671 88.56 225.671 88.967 L 225.671 91.75 C 225.671 92.157 225.498 92.361 225.15 92.361 L 221.644 92.361 C 220.485 92.361 219.528 92.236 218.775 91.987 C 218.074 91.773 217.447 91.362 216.964 90.8 C 216.51 90.257 216.196 89.556 216.022 88.696 C 215.835 87.678 215.747 86.644 215.762 85.608 L 215.762 77.736 L 213.009 77.736 C 212.662 77.736 212.488 77.533 212.487 77.125 L 212.487 74.343 C 212.487 73.936 212.661 73.733 213.009 73.732 L 215.762 73.732 Z" fill="white"></path><path d="M 174.082 80.434 L 170.211 80.434 C 170.124 80.434 170.053 80.507 170.053 80.596 L 170.053 84.675 C 170.053 84.765 170.124 84.837 170.211 84.837 L 174.082 84.837 C 174.169 84.837 174.24 84.765 174.24 84.675 L 174.24 80.596 C 174.24 80.507 174.169 80.434 174.082 80.434 Z" fill="white"></path><path d="M 191.697 77.481 C 191.503 76.68 191.108 75.943 190.553 75.344 C 190.021 74.79 189.311 74.383 188.423 74.122 C 187.535 73.862 186.444 73.732 185.149 73.732 L 176.949 73.732 C 175.635 73.732 174.539 73.862 173.66 74.122 C 172.782 74.382 172.077 74.789 171.545 75.344 C 170.99 75.943 170.595 76.68 170.401 77.481 C 170.189 78.331 170.076 79.203 170.061 80.079 C 170.061 80.087 170.059 80.095 170.059 80.104 L 170.059 80.634 L 170.061 80.634 C 170.068 80.714 170.103 80.789 170.161 80.844 C 170.219 80.899 170.295 80.929 170.373 80.929 L 173.907 80.929 C 173.986 80.929 174.061 80.899 174.119 80.844 C 174.177 80.789 174.212 80.715 174.219 80.634 L 174.22 80.634 L 174.221 80.621 C 174.24 80.302 174.28 79.984 174.341 79.67 C 174.413 79.249 174.587 78.852 174.847 78.517 C 175.101 78.215 175.44 78.001 175.818 77.906 C 176.321 77.781 176.837 77.724 177.354 77.736 L 184.742 77.736 C 185.269 77.723 185.795 77.78 186.307 77.906 C 186.685 78.002 187.024 78.215 187.278 78.517 C 187.537 78.852 187.712 79.249 187.784 79.67 C 187.89 80.252 187.938 80.843 187.929 81.435 L 187.929 84.658 C 187.939 85.261 187.891 85.863 187.784 86.456 C 187.714 86.874 187.54 87.266 187.278 87.594 C 187.018 87.888 186.681 88.1 186.307 88.204 C 185.797 88.342 185.27 88.405 184.742 88.391 L 177.354 88.391 C 176.836 88.404 176.319 88.341 175.818 88.204 C 175.444 88.1 175.107 87.888 174.847 87.594 C 174.585 87.266 174.41 86.874 174.341 86.456 C 174.26 86.024 174.215 85.586 174.206 85.146 L 174.206 84.866 C 174.206 84.824 174.197 84.782 174.182 84.743 C 174.166 84.704 174.143 84.669 174.113 84.639 C 174.084 84.609 174.05 84.585 174.011 84.569 C 173.973 84.553 173.932 84.545 173.891 84.545 L 170.367 84.545 C 170.326 84.545 170.285 84.553 170.247 84.569 C 170.209 84.585 170.174 84.609 170.145 84.639 C 170.116 84.669 170.093 84.704 170.077 84.743 C 170.061 84.782 170.053 84.824 170.053 84.866 L 170.053 85.507 C 170.053 86.728 170.169 87.774 170.401 88.645 C 170.595 89.447 170.989 90.184 171.545 90.783 C 172.076 91.338 172.782 91.739 173.66 91.988 C 174.539 92.236 175.635 92.361 176.949 92.361 L 185.149 92.361 C 186.443 92.361 187.534 92.237 188.423 91.988 C 189.312 91.739 190.022 91.337 190.553 90.783 C 191.109 90.184 191.503 89.447 191.697 88.645 C 191.929 87.775 192.045 86.728 192.045 85.507 L 192.045 80.62 C 192.045 79.399 191.929 78.353 191.697 77.481 Z" fill="white"></path><path d="M 199.161 88.079 L 195.812 88.079 C 195.58 88.079 195.393 88.271 195.393 88.507 L 195.393 91.932 C 195.393 92.169 195.58 92.361 195.812 92.361 L 199.161 92.361 C 199.392 92.361 199.58 92.169 199.58 91.932 L 199.58 88.507 C 199.58 88.271 199.392 88.079 199.161 88.079 Z" fill="#F9A912"></path><path d="M 246.834 76.702 C 246.679 75.988 246.413 75.411 246.037 74.971 C 245.626 74.508 245.092 74.178 244.501 74.02 C 243.854 73.828 243.038 73.732 242.053 73.732 L 233.563 73.732 C 232.249 73.732 231.153 73.862 230.274 74.122 C 229.396 74.382 228.691 74.789 228.159 75.344 C 227.603 75.943 227.209 76.68 227.015 77.481 C 226.783 78.353 226.667 79.399 226.667 80.62 L 226.667 81.546 L 223.791 81.546 C 223.711 81.546 223.631 81.562 223.557 81.594 C 223.483 81.625 223.416 81.671 223.359 81.729 C 223.302 81.787 223.257 81.856 223.226 81.932 C 223.196 82.008 223.18 82.089 223.18 82.171 L 223.18 83.922 C 223.18 84.004 223.196 84.085 223.226 84.161 C 223.257 84.237 223.302 84.306 223.359 84.364 C 223.416 84.422 223.483 84.468 223.557 84.499 C 223.631 84.53 223.711 84.547 223.791 84.547 L 226.667 84.547 L 226.667 85.507 C 226.667 86.728 226.783 87.774 227.015 88.645 C 227.209 89.447 227.603 90.184 228.159 90.783 C 228.69 91.338 229.395 91.739 230.274 91.988 C 231.153 92.236 232.25 92.361 233.563 92.361 L 246.051 92.361 C 246.399 92.361 246.573 92.158 246.573 91.75 L 246.573 88.9 C 246.573 88.492 246.399 88.289 246.051 88.289 L 233.968 88.289 C 232.713 88.289 231.868 88.051 231.433 87.576 C 230.999 87.101 230.782 86.332 230.782 85.269 L 230.782 84.455 L 245.414 84.455 C 245.974 84.455 246.389 84.313 246.66 84.031 C 246.93 83.748 247.066 83.245 247.065 82.521 L 247.065 79.297 C 247.079 78.426 247.001 77.556 246.834 76.702 Z M 243.009 80.858 C 243.009 81.243 242.845 81.435 242.516 81.435 L 230.782 81.435 L 230.782 80.519 C 230.782 79.433 230.999 78.658 231.433 78.194 C 231.868 77.731 232.713 77.499 233.969 77.499 L 241.241 77.499 C 241.917 77.499 242.381 77.646 242.632 77.94 C 242.883 78.234 243.009 78.732 243.009 79.433 L 243.009 80.858 Z" fill="white"></path><path d="M 171.223 73.112 L 171.223 68.751 L 152.455 68.751 C 152.128 68.751 151.804 68.817 151.501 68.945 C 151.199 69.073 150.924 69.26 150.693 69.497 C 150.461 69.733 150.278 70.014 150.153 70.323 C 150.027 70.633 149.963 70.964 149.963 71.299 L 149.963 92.36 L 154.228 92.36 L 154.228 82.752 L 167.888 82.752 L 167.888 78.359 L 154.228 78.359 L 154.228 73.112 L 171.223 73.112 Z" fill="white"></path><path d="M 270.467 72.671 C 271.772 72.671 272.867 72.808 273.754 73.083 C 274.641 73.358 275.357 73.789 275.901 74.375 C 276.447 74.961 276.831 75.714 277.055 76.634 C 277.28 77.554 277.392 78.66 277.391 79.951 L 277.391 91.572 C 277.391 92.098 277.177 92.361 276.749 92.361 L 273.886 92.361 C 273.457 92.361 273.243 92.098 273.243 91.572 L 273.243 81.171 C 273.25 80.541 273.211 79.912 273.126 79.288 C 273.077 78.852 272.927 78.434 272.688 78.069 C 272.461 77.761 272.144 77.534 271.783 77.423 C 271.279 77.276 270.757 77.21 270.234 77.226 L 265.093 77.226 L 265.093 91.572 C 265.093 92.098 264.869 92.361 264.421 92.361 L 261.558 92.361 C 261.129 92.361 260.915 92.098 260.915 91.572 L 260.915 77.227 L 255.949 77.227 C 255.426 77.213 254.904 77.28 254.401 77.424 C 254.02 77.536 253.679 77.761 253.422 78.069 C 253.154 78.425 252.978 78.845 252.911 79.289 C 252.805 79.91 252.756 80.541 252.765 81.172 L 252.765 91.572 C 252.765 92.098 252.55 92.361 252.122 92.361 L 249.259 92.361 C 248.811 92.361 248.587 92.098 248.587 91.572 L 248.587 79.951 C 248.587 78.66 248.704 77.555 248.938 76.634 C 249.171 75.714 249.556 74.961 250.092 74.375 C 250.627 73.789 251.338 73.359 252.224 73.084 C 253.11 72.808 254.216 72.671 255.54 72.671 L 270.467 72.671 Z" fill="white"></path><path d="M 283.136 88.079 L 279.786 88.079 C 279.555 88.079 279.367 88.271 279.367 88.507 L 279.367 91.932 C 279.367 92.169 279.555 92.361 279.786 92.361 L 283.136 92.361 C 283.367 92.361 283.555 92.169 283.555 91.932 L 283.555 88.507 C 283.555 88.271 283.367 88.079 283.136 88.079 Z" fill="#11ECC7"></path><path d="M 123.592 54.328 L 123.592 57.366 L 122.503 57.366 L 122.503 49.032 L 124.577 49.032 Q 125.855 49.032 126.442 49.318 Q 127.029 49.603 127.34 50.158 Q 127.652 50.714 127.652 51.395 Q 127.652 52.196 127.233 52.887 Q 126.814 53.579 126.065 53.953 Q 125.316 54.328 124.032 54.328 Z M 123.592 53.495 L 124.059 53.495 Q 125.064 53.495 125.551 53.233 Q 126.039 52.971 126.303 52.484 Q 126.568 51.997 126.568 51.426 Q 126.568 50.708 126.096 50.289 Q 125.625 49.87 124.242 49.87 L 123.592 49.87 Z M 131.46 57.534 Q 130.171 57.534 129.396 56.633 Q 128.621 55.732 128.621 54.365 Q 128.621 52.992 129.396 52.096 Q 130.171 51.201 131.46 51.201 Q 132.743 51.201 133.516 52.096 Q 134.288 52.992 134.288 54.365 Q 134.288 55.732 133.516 56.633 Q 132.743 57.534 131.46 57.534 Z M 131.46 56.701 Q 132.256 56.701 132.73 56.077 Q 133.204 55.454 133.204 54.365 Q 133.204 53.28 132.73 52.657 Q 132.256 52.034 131.46 52.034 Q 130.653 52.034 130.179 52.657 Q 129.705 53.28 129.705 54.365 Q 129.705 55.454 130.179 56.077 Q 130.653 56.701 131.46 56.701 Z M 135.833 57.366 L 134.859 51.368 L 135.786 51.368 L 136.357 55.019 L 136.504 55.868 L 136.65 55.019 L 137.609 51.368 L 138.504 51.368 L 139.584 55.019 L 139.772 55.868 L 139.893 55.019 L 140.469 51.368 L 141.239 51.368 L 140.264 57.366 L 139.332 57.366 L 138.18 53.506 L 137.996 52.657 L 137.97 52.657 L 137.803 53.5 L 136.807 57.366 Z M 147.176 56.968 Q 145.976 57.539 144.908 57.539 Q 144.096 57.539 143.457 57.136 Q 142.818 56.732 142.433 55.983 Q 142.048 55.234 142.048 54.38 Q 142.048 53.558 142.414 52.801 Q 142.781 52.044 143.436 51.622 Q 144.09 51.201 144.897 51.201 Q 145.966 51.201 146.613 51.963 Q 147.26 52.725 147.26 54.317 L 147.26 54.532 L 143.121 54.532 Q 143.121 55.156 143.383 55.669 Q 143.645 56.182 144.07 56.441 Q 144.494 56.701 145.033 56.701 Q 146.002 56.701 147.176 56.056 Z M 143.184 53.783 L 146.175 53.783 L 146.175 53.636 Q 146.175 52.903 145.814 52.468 Q 145.452 52.034 144.855 52.034 Q 144.248 52.034 143.802 52.476 Q 143.357 52.919 143.184 53.783 Z M 149.286 57.366 L 149.286 51.368 L 150.287 51.368 L 150.287 52.678 Q 150.753 51.934 151.358 51.567 Q 151.963 51.201 152.702 51.201 Q 153.246 51.201 153.791 51.368 L 153.791 53.532 L 152.827 53.532 L 152.827 52.159 Q 152.576 52.117 152.429 52.117 Q 151.874 52.117 151.334 52.557 Q 150.795 52.997 150.287 53.883 L 150.287 57.366 Z M 160.372 56.968 Q 159.173 57.539 158.104 57.539 Q 157.292 57.539 156.653 57.136 Q 156.014 56.732 155.629 55.983 Q 155.244 55.234 155.244 54.38 Q 155.244 53.558 155.611 52.801 Q 155.978 52.044 156.632 51.622 Q 157.287 51.201 158.094 51.201 Q 159.162 51.201 159.809 51.963 Q 160.456 52.725 160.456 54.317 L 160.456 54.532 L 156.318 54.532 Q 156.318 55.156 156.58 55.669 Q 156.842 56.182 157.266 56.441 Q 157.69 56.701 158.23 56.701 Q 159.199 56.701 160.372 56.056 Z M 156.381 53.783 L 159.372 53.783 L 159.372 53.636 Q 159.372 52.903 159.01 52.468 Q 158.649 52.034 158.052 52.034 Q 157.444 52.034 156.999 52.476 Q 156.554 52.919 156.381 53.783 Z M 165.982 56.02 Q 165.526 56.769 164.885 57.151 Q 164.243 57.534 163.703 57.534 Q 162.954 57.534 162.355 56.884 Q 161.755 56.235 161.755 54.909 Q 161.755 53.867 162.153 53.05 Q 162.551 52.233 163.216 51.756 Q 163.881 51.279 164.866 51.279 Q 165.149 51.279 165.725 51.342 Q 165.809 51.353 165.982 51.368 L 165.982 48.697 L 166.988 48.697 L 166.988 57.366 L 165.982 57.366 Z M 165.982 54.831 L 165.982 52.259 Q 165.448 52.117 164.992 52.117 Q 164.07 52.117 163.455 52.832 Q 162.839 53.547 162.839 54.778 Q 162.839 55.669 163.174 56.122 Q 163.51 56.575 163.939 56.575 Q 164.405 56.575 164.971 56.104 Q 165.537 55.632 165.982 54.831 Z M 176.023 52.715 Q 176.484 51.96 177.126 51.581 Q 177.767 51.201 178.302 51.201 Q 179.056 51.201 179.656 51.85 Q 180.255 52.5 180.255 53.82 Q 180.255 54.862 179.857 55.682 Q 179.459 56.502 178.791 56.976 Q 178.123 57.45 177.144 57.45 Q 176.861 57.45 176.285 57.392 Q 176.196 57.382 176.023 57.366 L 175.028 57.366 L 175.028 48.697 L 176.023 48.697 Z M 176.023 53.904 L 176.023 56.476 Q 176.568 56.612 177.023 56.612 Q 177.93 56.612 178.55 55.902 Q 179.171 55.192 179.171 53.956 Q 179.171 53.06 178.833 52.607 Q 178.495 52.154 178.066 52.154 Q 177.6 52.154 177.037 52.628 Q 176.473 53.102 176.023 53.904 Z M 183.909 57.125 L 181.138 51.368 L 182.238 51.368 L 184.448 55.868 L 186.297 51.368 L 187.298 51.368 L 184.972 56.942 Q 184.239 58.707 183.576 59.288 Q 182.913 59.87 181.86 59.87 Q 181.405 59.87 181.043 59.786 L 181.043 58.906 Q 181.457 59.037 181.834 59.037 Q 182.316 59.037 182.691 58.848 Q 183.065 58.66 183.377 58.183 Q 183.689 57.706 183.819 57.356 Z" style="fill: rgb(255, 255, 255); white-space: pre;"></path><path d="M 170.697 108.495 L 170.697 96.908 L 166.314 96.908 L 166.314 95.48 L 177.477 95.48 L 177.477 96.908 L 173.161 96.908 L 173.161 108.495 Z M 184.323 105.979 L 186.667 105.979 L 186.667 106.131 Q 186.667 106.663 186.096 107.426 Q 185.651 107.991 184.635 108.416 Q 183.818 108.754 182.63 108.754 Q 180.232 108.754 179.057 107.36 Q 177.815 105.866 177.815 103.854 Q 177.815 101.788 179.13 100.261 Q 180.378 98.833 182.563 98.833 Q 183.148 98.833 183.685 98.963 Q 184.223 99.092 184.692 99.335 Q 185.16 99.577 185.542 99.936 Q 185.923 100.294 186.182 100.752 Q 186.441 101.277 186.584 101.968 Q 186.727 102.658 186.727 103.475 L 186.727 104.053 L 180.139 104.053 Q 180.153 104.783 180.332 105.381 Q 180.511 105.979 180.85 106.397 Q 181.242 106.842 181.726 107.088 Q 182.211 107.333 182.762 107.333 Q 183.141 107.333 183.453 107.234 Q 183.765 107.134 183.991 106.961 Q 184.144 106.815 184.233 106.603 Q 184.323 106.39 184.323 106.131 Z M 184.449 102.758 L 184.449 102.645 Q 184.416 102.154 184.29 101.719 Q 184.164 101.284 183.915 100.958 Q 183.666 100.633 183.29 100.444 Q 182.915 100.254 182.397 100.254 Q 181.966 100.254 181.607 100.474 Q 181.248 100.693 180.973 101.045 Q 180.697 101.397 180.515 101.845 Q 180.332 102.293 180.252 102.758 Z M 193.543 105.979 L 195.893 105.979 L 195.893 106.131 Q 195.893 106.41 195.744 106.736 Q 195.595 107.061 195.342 107.42 Q 195.136 107.679 194.774 107.938 Q 194.413 108.197 193.954 108.409 Q 193.164 108.754 191.969 108.754 Q 190.82 108.754 189.943 108.409 Q 189.067 108.064 188.502 107.426 Q 187.931 106.729 187.616 105.806 Q 187.3 104.883 187.3 103.787 Q 187.3 102.698 187.616 101.778 Q 187.931 100.859 188.502 100.161 Q 189.067 99.524 189.943 99.179 Q 190.82 98.833 191.969 98.833 Q 193.171 98.833 194.011 99.185 Q 194.851 99.537 195.329 100.115 Q 195.595 100.454 195.744 100.799 Q 195.893 101.144 195.893 101.456 L 195.893 101.602 L 193.543 101.602 L 193.543 101.456 Q 193.569 100.899 193.237 100.626 Q 192.799 100.254 192.048 100.254 Q 191.152 100.254 190.388 101.091 Q 189.711 101.808 189.711 103.787 Q 189.711 105.773 190.388 106.497 Q 191.152 107.333 192.048 107.333 Q 192.414 107.333 192.713 107.237 Q 193.011 107.141 193.224 106.968 Q 193.377 106.835 193.46 106.623 Q 193.543 106.41 193.543 106.131 Z M 199.059 108.495 L 196.722 108.495 L 196.722 94.962 L 199.059 94.962 L 199.059 99.836 Q 199.126 99.776 199.205 99.707 Q 199.285 99.637 199.358 99.584 Q 199.736 99.285 200.434 99.026 Q 200.945 98.833 201.695 98.833 Q 202.194 98.833 202.645 98.933 Q 203.097 99.033 203.482 99.222 Q 203.867 99.411 204.172 99.677 Q 204.478 99.942 204.677 100.274 Q 204.89 100.659 205.002 101.231 Q 205.115 101.802 205.115 102.525 L 205.115 108.495 L 202.771 108.495 L 202.771 103.19 Q 202.771 101.895 202.625 101.45 Q 202.426 100.832 202.16 100.673 Q 201.689 100.387 201.31 100.387 Q 201.078 100.387 200.799 100.49 Q 200.52 100.593 200.235 100.772 Q 200.029 100.912 199.81 101.191 Q 199.59 101.47 199.385 101.868 Q 199.219 102.18 199.139 102.682 Q 199.059 103.183 199.059 103.874 Z M 208.677 108.495 L 206.34 108.495 L 206.34 99.092 L 208.677 99.092 L 208.677 99.836 Q 208.744 99.776 208.823 99.707 Q 208.903 99.637 208.976 99.584 Q 209.355 99.285 210.052 99.026 Q 210.563 98.833 211.314 98.833 Q 211.812 98.833 212.263 98.933 Q 212.715 99.033 213.1 99.222 Q 213.485 99.411 213.791 99.677 Q 214.096 99.942 214.295 100.274 Q 214.508 100.659 214.621 101.231 Q 214.733 101.802 214.733 102.525 L 214.733 108.495 L 212.389 108.495 L 212.389 103.19 Q 212.389 101.895 212.243 101.45 Q 212.037 100.825 211.765 100.673 Q 211.533 100.533 211.327 100.46 Q 211.121 100.387 210.928 100.387 Q 210.696 100.387 210.417 100.49 Q 210.138 100.593 209.853 100.772 Q 209.647 100.912 209.428 101.191 Q 209.208 101.47 209.003 101.868 Q 208.837 102.18 208.757 102.682 Q 208.677 103.183 208.677 103.874 Z M 220.288 108.754 Q 219.796 108.754 219.325 108.665 Q 218.853 108.575 218.422 108.412 Q 217.99 108.25 217.608 108.017 Q 217.226 107.785 216.907 107.499 Q 216.25 106.829 215.878 105.882 Q 215.506 104.936 215.506 103.787 Q 215.506 102.645 215.878 101.699 Q 216.25 100.752 216.907 100.088 Q 217.552 99.504 218.418 99.169 Q 219.285 98.833 220.288 98.833 Q 221.304 98.833 222.16 99.159 Q 223.017 99.484 223.661 100.088 Q 224.318 100.752 224.69 101.699 Q 225.062 102.645 225.062 103.787 Q 225.062 106.145 223.661 107.499 Q 222.353 108.754 220.288 108.754 Z M 220.288 107.333 Q 221.231 107.333 221.974 106.37 Q 222.658 105.481 222.658 103.787 Q 222.658 102.1 221.974 101.217 Q 221.231 100.254 220.288 100.254 Q 219.829 100.254 219.388 100.517 Q 218.946 100.779 218.588 101.217 L 218.594 101.217 Q 218.275 101.656 218.096 102.313 Q 217.917 102.97 217.917 103.787 Q 217.917 104.617 218.093 105.268 Q 218.269 105.919 218.594 106.37 L 218.588 106.37 Q 218.946 106.809 219.388 107.071 Q 219.829 107.333 220.288 107.333 Z M 228.296 108.495 L 225.959 108.495 L 225.959 94.962 L 228.296 94.962 Z M 233.976 108.754 Q 233.485 108.754 233.013 108.665 Q 232.542 108.575 232.11 108.412 Q 231.679 108.25 231.297 108.017 Q 230.915 107.785 230.596 107.499 Q 229.939 106.829 229.567 105.882 Q 229.195 104.936 229.195 103.787 Q 229.195 102.645 229.567 101.699 Q 229.939 100.752 230.596 100.088 Q 231.24 99.504 232.107 99.169 Q 232.974 98.833 233.976 98.833 Q 234.992 98.833 235.849 99.159 Q 236.706 99.484 237.35 100.088 Q 238.007 100.752 238.379 101.699 Q 238.751 102.645 238.751 103.787 Q 238.751 106.145 237.35 107.499 Q 236.042 108.754 233.976 108.754 Z M 233.976 107.333 Q 234.919 107.333 235.663 106.37 Q 236.347 105.481 236.347 103.787 Q 236.347 102.1 235.663 101.217 Q 234.919 100.254 233.976 100.254 Q 233.518 100.254 233.077 100.517 Q 232.635 100.779 232.276 101.217 L 232.283 101.217 Q 231.964 101.656 231.785 102.313 Q 231.606 102.97 231.606 103.787 Q 231.606 104.617 231.782 105.268 Q 231.958 105.919 232.283 106.37 L 232.276 106.37 Q 232.635 106.809 233.077 107.071 Q 233.518 107.333 233.976 107.333 Z M 246.023 107.546 Q 245.538 108.011 244.88 108.253 Q 244.223 108.495 243.4 108.495 Q 241.461 108.495 240.365 107.174 Q 239.196 105.753 239.196 103.714 Q 239.196 102.386 239.707 101.151 Q 240.159 100.095 241.208 99.411 Q 242.105 98.833 243.473 98.833 Q 243.991 98.833 244.426 98.92 Q 244.861 99.006 245.212 99.185 Q 245.418 99.292 245.628 99.438 Q 245.837 99.584 246.023 99.743 L 246.023 99.092 L 248.36 99.092 L 248.36 106.736 Q 248.36 108.104 248.191 109.06 Q 248.021 110.016 247.703 110.534 Q 247.43 110.933 246.995 111.294 Q 246.561 111.656 246.029 111.915 Q 245.571 112.134 244.977 112.251 Q 244.382 112.367 243.698 112.367 Q 243.074 112.367 242.516 112.277 Q 241.959 112.188 241.5 112.015 Q 240.982 111.816 240.571 111.563 Q 240.159 111.311 239.946 111.059 Q 239.687 110.727 239.538 110.398 Q 239.389 110.069 239.389 109.79 L 239.389 109.584 L 241.733 109.584 L 241.733 109.784 Q 241.733 110.102 241.852 110.338 Q 241.972 110.574 242.191 110.707 Q 242.516 110.879 242.892 110.976 Q 243.267 111.072 243.679 111.072 Q 244.356 111.072 244.857 110.79 Q 245.359 110.508 245.711 109.883 Q 246.023 109.345 246.023 107.579 Z M 246.023 103.515 Q 246.023 101.948 245.352 101.151 Q 244.602 100.254 243.831 100.254 Q 243.42 100.254 243.021 100.487 Q 242.623 100.719 242.264 101.158 Q 241.945 101.576 241.776 102.217 Q 241.607 102.858 241.607 103.727 Q 241.607 104.783 241.879 105.574 Q 242.151 106.364 242.656 106.742 Q 242.948 106.922 243.247 107.031 Q 243.546 107.141 243.798 107.141 Q 244.223 107.141 244.618 106.882 Q 245.013 106.623 245.365 106.138 L 245.359 106.138 Q 245.677 105.667 245.85 105.009 Q 246.023 104.352 246.023 103.515 Z M 249.711 99.092 L 252.049 99.092 L 252.049 108.495 L 249.711 108.495 Z M 249.711 97.167 L 249.711 95.48 L 252.049 95.48 L 252.049 97.167 Z M 259.455 105.979 L 261.799 105.979 L 261.799 106.131 Q 261.799 106.663 261.228 107.426 Q 260.783 107.991 259.767 108.416 Q 258.951 108.754 257.762 108.754 Q 255.365 108.754 254.189 107.36 Q 252.947 105.866 252.947 103.854 Q 252.947 101.788 254.262 100.261 Q 255.511 98.833 257.695 98.833 Q 258.28 98.833 258.818 98.963 Q 259.356 99.092 259.824 99.335 Q 260.292 99.577 260.674 99.936 Q 261.056 100.294 261.315 100.752 Q 261.574 101.277 261.716 101.968 Q 261.859 102.658 261.859 103.475 L 261.859 104.053 L 255.272 104.053 Q 255.285 104.783 255.464 105.381 Q 255.643 105.979 255.982 106.397 Q 256.374 106.842 256.859 107.088 Q 257.343 107.333 257.895 107.333 Q 258.273 107.333 258.585 107.234 Q 258.897 107.134 259.123 106.961 Q 259.276 106.815 259.366 106.603 Q 259.455 106.39 259.455 106.131 Z M 259.581 102.758 L 259.581 102.645 Q 259.548 102.154 259.422 101.719 Q 259.296 101.284 259.047 100.958 Q 258.798 100.633 258.423 100.444 Q 258.047 100.254 257.529 100.254 Q 257.098 100.254 256.739 100.474 Q 256.381 100.693 256.105 101.045 Q 255.829 101.397 255.647 101.845 Q 255.464 102.293 255.385 102.758 Z M 262.313 105.912 L 264.651 105.912 L 264.651 106.012 Q 264.651 106.676 264.969 106.961 L 264.969 106.955 Q 265.428 107.333 266.251 107.333 Q 266.995 107.333 267.553 106.882 Q 267.998 106.536 267.998 105.839 Q 267.998 104.956 267.114 104.69 L 266.324 104.451 L 265.799 104.285 Q 265.527 104.206 265.258 104.119 Q 264.989 104.033 264.717 103.953 Q 262.619 103.196 262.619 101.656 Q 262.619 101.144 262.874 100.65 Q 263.13 100.155 263.628 99.683 Q 264.086 99.285 264.83 99.059 Q 265.574 98.833 266.543 98.833 Q 268.529 98.833 269.279 99.564 Q 270.129 100.394 270.129 101.184 L 270.129 101.284 L 267.778 101.284 L 267.778 101.184 Q 267.778 100.746 267.423 100.5 Q 267.068 100.254 266.464 100.254 Q 266.118 100.254 265.816 100.351 Q 265.514 100.447 265.282 100.626 L 265.288 100.626 Q 264.943 100.899 264.943 101.523 Q 264.943 101.749 265.003 101.918 Q 265.062 102.087 265.195 102.22 Q 265.328 102.353 265.537 102.456 Q 265.746 102.559 266.045 102.645 L 266.039 102.645 L 266.782 102.851 L 267.34 103.01 Q 267.905 103.17 268.29 103.292 Q 268.675 103.415 268.794 103.468 Q 269.007 103.575 269.156 103.661 Q 269.306 103.747 269.419 103.82 Q 269.903 104.192 270.129 104.624 Q 270.355 105.056 270.355 105.58 Q 270.355 106.822 269.292 107.838 Q 268.323 108.754 266.264 108.754 Q 265.607 108.754 265.079 108.665 Q 264.551 108.575 264.129 108.406 Q 263.708 108.236 263.389 107.994 Q 263.07 107.752 262.838 107.446 Q 262.313 106.742 262.313 106.012 Z" style="fill: url(#gradient-4); paint-order: fill; white-space: pre;"></path></svg>