<svg width="32" height="38" viewBox="0 0 32 38" fill="none" xmlns="http://www.w3.org/2000/svg">
<path d="M16.1628 37.6471C15.9298 37.6471 15.6967 37.5936 15.4863 37.4847L8.70777 33.9758C6.78431 32.9791 5.27965 31.8605 4.10472 30.5574C1.53316 27.7074 0.102404 24.049 0.0796633 20.254L7.16985e-05 7.76333C-0.00940349 6.32175 0.92106 5.02783 2.31202 4.54053L14.7586 0.201013C15.4977 -0.0629387 16.322 -0.0666303 17.0744 0.188093L29.5683 4.37995C30.9669 4.84694 31.9125 6.13163 31.9201 7.57137L31.9997 20.0713C32.0243 23.8607 30.6428 27.5339 28.1111 30.4152C26.9494 31.7368 25.458 32.872 23.5535 33.8872L16.8356 37.4755C16.6271 37.5881 16.3959 37.6453 16.1628 37.6471Z" fill="#16837C"/>
</svg>
